<svg width="59" height="64" viewBox="0 0 59 64" fill="none" xmlns="http://www.w3.org/2000/svg">
<mask id="mask0_2_1703" style="mask-type:alpha" maskUnits="userSpaceOnUse" x="0" y="0" width="53" height="59">
<rect x="0.908203" width="51.5612" height="58.3392" fill="url(#paint0_linear_2_1703)"/>
</mask>
<g mask="url(#mask0_2_1703)">
<path fill-rule="evenodd" clip-rule="evenodd" d="M46.9501 15.5056L47.1437 16.716C47.289 17.8295 47.3616 18.9431 47.3374 20.0808C47.3374 22.5741 47.0469 25.0432 46.4659 27.464C45.6913 30.7319 44.3357 33.8546 42.4717 36.6627C40.3173 39.858 37.1946 42.9807 32.6678 45.5467L32.1111 45.8614L31.5543 45.5467C27.0276 43.0291 23.9049 39.8822 21.7504 36.6627C19.8623 33.8546 18.5309 30.7561 17.7563 27.464C17.1753 25.0432 16.8848 22.5741 16.8848 20.0808C16.8848 18.9673 16.9332 17.8295 17.0785 16.716L17.2479 15.5056C17.2721 15.4088 17.2721 15.312 17.2479 15.2152C17.2237 15.1183 17.1995 15.0215 17.1269 14.9489C17.0785 14.8763 17.0058 14.8036 16.9332 14.7552C16.8606 14.7068 16.7638 14.6826 16.6911 14.6584C16.5943 14.6342 16.4975 14.6342 16.4007 14.6584C16.3038 14.6826 16.207 14.731 16.1344 14.7794C16.0618 14.8278 15.9891 14.9005 15.9407 14.9731C15.8923 15.0699 15.8681 15.1667 15.8439 15.2636L15.6502 16.4739C15.505 17.6601 15.4324 18.8704 15.4324 20.0808C15.4324 22.6952 15.7471 25.2853 16.3522 27.8271C16.7638 29.5458 17.3205 31.2403 18.0225 32.8621C18.7245 34.484 19.5718 36.0333 20.5643 37.5099C22.8398 40.8989 26.1319 44.2153 30.8765 46.8297L31.7722 47.338C31.8932 47.3864 32.0143 47.4106 32.1353 47.4106C32.2563 47.4106 32.3774 47.3864 32.4984 47.338L33.3941 46.8297C38.1145 44.1911 41.4308 40.8747 43.7063 37.5099C45.6913 34.5566 47.1195 31.2645 47.9183 27.8271C48.5235 25.2853 48.814 22.6952 48.814 20.0808C48.814 18.8704 48.7414 17.6601 48.5961 16.4497L48.4025 15.2394C48.3783 15.1425 48.3541 15.0457 48.3057 14.9489C48.2572 14.8763 48.1846 14.8036 48.112 14.7552C48.0394 14.7068 47.9425 14.6584 47.8457 14.6342C47.7489 14.61 47.6521 14.61 47.5552 14.6342C47.4584 14.6584 47.3616 14.6826 47.2647 14.731C47.1921 14.7794 47.1195 14.852 47.0711 14.9247C47.0227 14.9973 46.9743 15.0941 46.9501 15.1909V15.5056Z" fill="url(#paint1_linear_2_1703)"/>
<path fill-rule="evenodd" clip-rule="evenodd" d="M21.3151 14.6823L32.1599 11.2691L43.2226 14.7549C43.3194 14.7791 43.4162 14.7791 43.5131 14.7791C43.6099 14.7791 43.7067 14.7549 43.8036 14.7065C43.9004 14.6581 43.973 14.6097 44.0456 14.5128C44.1182 14.4402 44.1667 14.3434 44.1667 14.2465C44.1909 14.1497 44.1909 14.0529 44.1909 13.9561C44.1909 13.8592 44.1667 13.7624 44.1182 13.6656C44.0698 13.5687 44.0214 13.4961 43.9488 13.4235C43.8762 13.3509 43.7793 13.3025 43.6825 13.3025L32.3778 9.71981C32.2325 9.6714 32.0873 9.6714 31.9421 9.71981L20.9036 13.2056C20.8068 13.2298 20.7342 13.2783 20.6373 13.3267C20.5647 13.3993 20.4921 13.4719 20.4679 13.5687C20.4195 13.6656 20.3953 13.7624 20.3953 13.8592C20.3953 13.9561 20.3953 14.0529 20.4195 14.1497C20.4437 14.2465 20.4921 14.3434 20.5405 14.416C20.5889 14.4886 20.6857 14.5612 20.7826 14.6097C20.8552 14.6581 20.952 14.6823 21.0731 14.6823C21.1215 14.7065 21.2183 14.7065 21.3151 14.6823Z" fill="url(#paint2_linear_2_1703)"/>
<path fill-rule="evenodd" clip-rule="evenodd" d="M15.9648 15.7229L31.4815 46.9985C31.5299 47.1195 31.6268 47.2164 31.7236 47.289C31.9657 47.4342 32.2562 47.4342 32.4982 47.289C32.6193 47.2164 32.7161 47.1195 32.7887 46.9985L42.2537 28.7221L42.2779 28.6979L48.3297 15.6987C48.3781 15.6018 48.4023 15.505 48.4023 15.4082C48.4023 15.3114 48.4023 15.2145 48.3539 15.1177C48.3297 15.0209 48.2813 14.924 48.2087 14.8514C48.1602 14.7788 48.0634 14.7062 47.9908 14.6578C47.9182 14.6094 47.8213 14.5851 47.7003 14.5851C47.6035 14.5851 47.5067 14.5851 47.4098 14.6094C47.313 14.6336 47.2162 14.682 47.1435 14.7546C47.0709 14.8272 46.9983 14.8998 46.9741 14.9967L40.9223 27.9959L32.1109 45.0135L17.2477 14.9967C17.1993 14.924 17.1267 14.8272 17.0783 14.7546C17.0057 14.682 16.9088 14.6336 16.812 14.6094C16.7152 14.5609 16.6184 14.5609 16.5215 14.5851C16.4247 14.5851 16.3279 14.6094 16.231 14.6578C16.1584 14.7062 16.0616 14.7788 16.0132 14.8514C15.9648 14.924 15.9164 15.0209 15.8921 15.1177C15.8679 15.2145 15.8437 15.3114 15.8679 15.4082C15.8921 15.5292 15.9163 15.6261 15.9648 15.7229Z" fill="url(#paint3_linear_2_1703)"/>
<path fill-rule="evenodd" clip-rule="evenodd" d="M23.397 29.6663H40.6809C40.7777 29.6663 40.8746 29.6421 40.9714 29.6179C41.0682 29.5936 41.1408 29.521 41.1893 29.4484C41.2619 29.3758 41.3103 29.3032 41.3345 29.2063C41.4071 29.0127 41.4071 28.819 41.3345 28.6254C41.3103 28.5285 41.2377 28.4559 41.1893 28.3833C41.1166 28.3107 41.044 28.2623 40.9714 28.2138C40.8746 28.1896 40.7777 28.1654 40.6809 28.1654H23.397C23.3002 28.1654 23.2034 28.1896 23.1065 28.2138C23.0097 28.2381 22.9371 28.3107 22.8887 28.3833C22.8161 28.4559 22.7676 28.5285 22.7434 28.6254C22.6708 28.819 22.6708 29.0127 22.7434 29.2063C22.7676 29.3032 22.8161 29.3758 22.8887 29.4484C22.9613 29.521 23.0339 29.5694 23.1065 29.6179C23.2034 29.6421 23.3002 29.6421 23.397 29.6663ZM71.5692 23.1545H60.3371C60.2403 23.1545 60.1434 23.1788 60.0466 23.203C59.9498 23.2272 59.8772 23.2998 59.8287 23.3724C59.7561 23.445 59.7077 23.5177 59.6835 23.6145C59.6593 23.7113 59.6351 23.8081 59.6351 23.905V33.2247C59.6351 33.3215 59.6593 33.4184 59.6835 33.5152C59.7077 33.612 59.7561 33.6847 59.8287 33.7573C59.9014 33.8299 59.974 33.8783 60.0466 33.9267C60.1434 33.9509 60.2403 33.9751 60.3371 33.9751H71.5692V35.5486H60.3371C60.1919 35.5486 60.0466 35.5244 59.9014 35.5002C59.7561 35.476 59.6109 35.4276 59.4656 35.3791C59.3204 35.3307 59.1994 35.2581 59.0783 35.1855C58.9573 35.0887 58.8605 34.9918 58.7394 34.895C58.5216 34.6771 58.3763 34.4351 58.2553 34.1688C58.2069 34.0235 58.1585 33.8783 58.1343 33.7331C58.11 33.5878 58.0858 33.4426 58.0858 33.2973V23.9292C58.0858 23.7839 58.11 23.6387 58.1343 23.4935C58.1585 23.3482 58.2069 23.203 58.2553 23.0577C58.3037 22.9125 58.3763 22.7672 58.4489 22.6462C58.5216 22.5252 58.6184 22.4041 58.7394 22.3073C58.8363 22.2105 58.9573 22.1136 59.0783 22.0168C59.1994 21.9442 59.3204 21.8716 59.4656 21.8232C59.6109 21.7747 59.7561 21.7263 59.9014 21.7021C60.0466 21.6779 60.1919 21.6537 60.3371 21.6537H71.5692V23.1545ZM92.6536 21.5811V23.1545H81.833V27.7781H90.5234V29.3758H81.833V33.9993H92.6536V35.5728H80.3322V21.5811H92.6536Z" fill="url(#paint4_linear_2_1703)"/>
</g>
<mask id="mask1_2_1703" style="mask-type:alpha" maskUnits="userSpaceOnUse" x="4" y="43" width="56" height="21">
<rect x="4.53394" y="43.7366" width="54.4668" height="19.7679" fill="url(#paint5_linear_2_1703)"/>
</mask>
<g mask="url(#mask1_2_1703)">
<path fill-rule="evenodd" clip-rule="evenodd" d="M-6.51593 53.9958H0.991654C1.03371 53.9958 1.07577 53.9853 1.11783 53.9748C1.15989 53.9643 1.19143 53.9327 1.21246 53.9012C1.24401 53.8696 1.26504 53.8381 1.27555 53.796C1.3071 53.7119 1.3071 53.6278 1.27555 53.5437C1.26504 53.5016 1.23349 53.4701 1.21246 53.4385C1.18092 53.407 1.14938 53.3859 1.11783 53.3649C1.07577 53.3544 1.03371 53.3439 0.991654 53.3439H-6.51593C-6.55799 53.3439 -6.60005 53.3544 -6.64211 53.3649C-6.68416 53.3754 -6.71571 53.407 -6.73674 53.4385C-6.76828 53.4701 -6.78931 53.5016 -6.79983 53.5437C-6.83137 53.6278 -6.83137 53.7119 -6.79983 53.796C-6.78931 53.8381 -6.76828 53.8696 -6.73674 53.9012C-6.70519 53.9327 -6.67365 53.9537 -6.64211 53.9748C-6.60005 53.9853 -6.55799 53.9853 -6.51593 53.9958ZM14.4086 51.1673H9.52969C9.48763 51.1673 9.44557 51.1778 9.40351 51.1884C9.36145 51.1989 9.32991 51.2304 9.30888 51.262C9.27733 51.2935 9.2563 51.325 9.24579 51.3671C9.23527 51.4092 9.22476 51.4512 9.22476 51.4933V55.5415C9.22476 55.5835 9.23527 55.6256 9.24579 55.6677C9.2563 55.7097 9.27733 55.7413 9.30888 55.7728C9.34042 55.8044 9.37196 55.8254 9.40351 55.8464C9.44557 55.8569 9.48763 55.8674 9.52969 55.8674H14.4086V56.5509H9.52969C9.4666 56.5509 9.40351 56.5404 9.34042 56.5299C9.27733 56.5194 9.21424 56.4983 9.15115 56.4773C9.08807 56.4563 9.03549 56.4247 8.98292 56.3932C8.93034 56.3511 8.88828 56.3091 8.83571 56.267C8.74108 56.1724 8.67799 56.0672 8.62541 55.9516C8.60438 55.8885 8.58335 55.8254 8.57284 55.7623C8.56232 55.6992 8.55181 55.6361 8.55181 55.573V51.5038C8.55181 51.4407 8.56232 51.3776 8.57284 51.3145C8.58335 51.2514 8.60438 51.1883 8.62541 51.1253C8.64644 51.0622 8.67799 50.9991 8.70953 50.9465C8.74108 50.8939 8.78314 50.8414 8.83571 50.7993C8.87777 50.7572 8.93034 50.7152 8.98292 50.6731C9.03549 50.6416 9.08807 50.61 9.15115 50.589C9.21424 50.568 9.27733 50.5469 9.34042 50.5364C9.40351 50.5259 9.4666 50.5154 9.52969 50.5154H14.4086V51.1673ZM23.567 50.4839V51.1673H18.8668V53.1757H22.6417V53.8696H18.8668V55.878H23.567V56.5614H18.2149V50.4839H23.567Z" fill="url(#paint6_linear_2_1703)"/>
<path d="M33.2503 51.5139V53.2909C33.2503 53.354 33.2398 53.4171 33.2293 53.4802C33.2188 53.5433 33.1978 53.6064 33.1767 53.6695C33.1557 53.7326 33.1241 53.7956 33.0926 53.8482C33.0505 53.9008 33.019 53.9534 32.9664 53.9954C32.9244 54.0375 32.8718 54.0795 32.8192 54.1216C32.7666 54.1531 32.7141 54.1847 32.651 54.2057C32.5879 54.2268 32.5248 54.2478 32.4617 54.2688C32.3986 54.2793 32.3355 54.2898 32.2724 54.2898H31.3787L33.2188 56.5505H32.3355L30.506 54.2898H28.3609C28.2558 54.2898 28.1506 54.2793 28.0455 54.2583V56.5505H27.3831V50.494H32.283C32.3461 50.494 32.4091 50.5045 32.4722 50.515C32.5353 50.5255 32.5984 50.5466 32.6615 50.5676C32.7246 50.5886 32.7772 50.6202 32.8297 50.6622C32.9349 50.7358 33.019 50.8305 33.0926 50.9356C33.1241 50.9882 33.1557 51.0513 33.1767 51.1144C33.1978 51.1775 33.2188 51.2405 33.2293 51.3036C33.2398 51.3772 33.2503 51.4508 33.2503 51.5139ZM28.3504 53.6169H32.2724C32.3145 53.6169 32.3566 53.6064 32.3986 53.5959C32.4407 53.5853 32.4722 53.5643 32.4933 53.5223C32.5248 53.4907 32.5458 53.4592 32.5563 53.4171C32.5669 53.3751 32.5774 53.333 32.5774 53.2909V51.5139C32.5774 51.4298 32.5458 51.3457 32.4933 51.2826C32.4407 51.2195 32.3566 51.1775 32.2724 51.1775H28.3504C28.3084 51.1775 28.2663 51.188 28.2242 51.1985C28.1822 51.209 28.1506 51.2405 28.1296 51.2721C28.0981 51.3036 28.077 51.3352 28.0665 51.3772C28.056 51.4193 28.0455 51.4614 28.0455 51.5034V53.2804C28.0455 53.3645 28.077 53.4487 28.1506 53.5117C28.1927 53.5748 28.2768 53.6169 28.3504 53.6169Z" fill="url(#paint7_linear_2_1703)"/>
<path fill-rule="evenodd" clip-rule="evenodd" d="M36.7626 50.4839H42.6298V51.1673H40.0327V56.5509H39.3702V51.1673H36.7626V50.4839ZM46.2049 56.5614V50.4944H46.8673V56.5614H46.2049ZM55.6893 50.4839H56.5409L54.091 53.5226L56.5515 56.5614H55.6893L53.5022 53.8696H51.6095V56.5614H50.9471V50.4944H51.62V53.1862H53.5127L55.6893 50.4839Z" fill="url(#paint8_linear_2_1703)"/>
</g>
<defs>
<linearGradient id="paint0_linear_2_1703" x1="-22.2943" y1="29.2927" x2="66.6043" y2="29.2927" gradientUnits="userSpaceOnUse">
<stop stop-color="#0DCCF2"/>
<stop offset="1" stop-color="#AA00FF"/>
</linearGradient>
<linearGradient id="paint1_linear_2_1703" x1="0.410639" y1="31.0825" x2="57.9652" y2="31.0825" gradientUnits="userSpaceOnUse">
<stop stop-color="#0DCCF2"/>
<stop offset="1" stop-color="#AA00FF"/>
</linearGradient>
<linearGradient id="paint2_linear_2_1703" x1="9.68724" y1="12.2421" x2="50.7141" y2="12.2421" gradientUnits="userSpaceOnUse">
<stop stop-color="#0DCCF2"/>
<stop offset="1" stop-color="#AA00FF"/>
</linearGradient>
<linearGradient id="paint3_linear_2_1703" x1="1.21293" y1="31.0528" x2="57.324" y2="31.0528" gradientUnits="userSpaceOnUse">
<stop stop-color="#0DCCF2"/>
<stop offset="1" stop-color="#AA00FF"/>
</linearGradient>
<linearGradient id="paint4_linear_2_1703" x1="-8.79513" y1="28.6065" x2="111.834" y2="28.6065" gradientUnits="userSpaceOnUse">
<stop stop-color="#0DCCF2"/>
<stop offset="1" stop-color="#AA00FF"/>
</linearGradient>
<linearGradient id="paint5_linear_2_1703" x1="-19.9761" y1="53.6622" x2="73.9321" y2="53.6622" gradientUnits="userSpaceOnUse">
<stop stop-color="#0DCCF2"/>
<stop offset="1" stop-color="#AA00FF"/>
</linearGradient>
<linearGradient id="paint6_linear_2_1703" x1="-20.4992" y1="53.5355" x2="31.8981" y2="53.5355" gradientUnits="userSpaceOnUse">
<stop stop-color="#0DCCF2"/>
<stop offset="1" stop-color="#AA00FF"/>
</linearGradient>
<linearGradient id="paint7_linear_2_1703" x1="24.7428" y1="53.535" x2="34.8588" y2="53.535" gradientUnits="userSpaceOnUse">
<stop stop-color="#0DCCF2"/>
<stop offset="1" stop-color="#AA00FF"/>
</linearGradient>
<linearGradient id="paint8_linear_2_1703" x1="27.8576" y1="53.5355" x2="61.9764" y2="53.5355" gradientUnits="userSpaceOnUse">
<stop stop-color="#0DCCF2"/>
<stop offset="1" stop-color="#AA00FF"/>
</linearGradient>
</defs>
</svg>
