<svg width="53" height="59" viewBox="0 0 53 59" fill="none" xmlns="http://www.w3.org/2000/svg">
<mask id="mask0_84_2681" style="mask-type:alpha" maskUnits="userSpaceOnUse" x="0" y="0" width="53" height="59">
<rect x="0.908203" width="51.5612" height="58.3392" fill="#F9623B"/>
</mask>
<g mask="url(#mask0_84_2681)">
<path fill-rule="evenodd" clip-rule="evenodd" d="M7.46301 15.5056L7.64556 16.716C7.78246 17.8295 7.85092 18.9431 7.8281 20.0808C7.8281 22.5741 7.55429 25.0432 7.00666 27.464C6.2765 30.7319 4.9987 33.8546 3.24174 36.6627C1.21097 39.858 -1.73251 42.9807 -5.99942 45.5467L-6.52422 45.8614L-7.04903 45.5467C-11.3159 43.0291 -14.2594 39.8822 -16.2902 36.6627C-18.07 33.8546 -19.3249 30.7561 -20.0551 27.464C-20.6027 25.0432 -20.8765 22.5741 -20.8765 20.0808C-20.8765 18.9673 -20.8309 17.8295 -20.694 16.716L-20.5343 15.5056C-20.5115 15.4088 -20.5115 15.312 -20.5343 15.2152C-20.5571 15.1183 -20.5799 15.0215 -20.6484 14.9489C-20.694 14.8763 -20.7625 14.8036 -20.8309 14.7552C-20.8994 14.7068 -20.9906 14.6826 -21.0591 14.6584C-21.1504 14.6342 -21.2416 14.6342 -21.3329 14.6584C-21.4242 14.6826 -21.5154 14.731 -21.5839 14.7794C-21.6523 14.8278 -21.7208 14.9005 -21.7664 14.9731C-21.8121 15.0699 -21.8349 15.1667 -21.8577 15.2636L-22.0402 16.4739C-22.1772 17.6601 -22.2456 18.8704 -22.2456 20.0808C-22.2456 22.6952 -21.949 25.2853 -21.3785 27.8271C-20.9906 29.5458 -20.4658 31.2403 -19.8041 32.8621C-19.1424 34.484 -18.3438 36.0333 -17.4083 37.5099C-15.2634 40.8989 -12.1602 44.2153 -7.68792 46.8297L-6.84367 47.338C-6.72958 47.3864 -6.61549 47.4106 -6.5014 47.4106C-6.38732 47.4106 -6.27323 47.3864 -6.15914 47.338L-5.31489 46.8297C-0.865438 44.1911 2.26059 40.8747 4.40545 37.5099C6.2765 34.5566 7.62274 31.2645 8.37572 27.8271C8.94617 25.2853 9.21998 22.6952 9.21998 20.0808C9.21998 18.8704 9.15153 17.6601 9.01462 16.4497L8.83208 15.2394C8.80926 15.1425 8.78644 15.0457 8.74081 14.9489C8.69517 14.8763 8.62672 14.8036 8.55827 14.7552C8.48981 14.7068 8.39854 14.6584 8.30727 14.6342C8.216 14.61 8.12473 14.61 8.03346 14.6342C7.94219 14.6584 7.85092 14.6826 7.75965 14.731C7.69119 14.7794 7.62274 14.852 7.5771 14.9247C7.53147 14.9973 7.48583 15.0941 7.46301 15.1909V15.5056Z" fill="#F9623B"/>
<path fill-rule="evenodd" clip-rule="evenodd" d="M-16.7003 14.6823L-6.47799 11.2691L3.94969 14.7549C4.04096 14.7791 4.13223 14.7791 4.2235 14.7791C4.31477 14.7791 4.40604 14.7549 4.49731 14.7065C4.58858 14.6581 4.65704 14.6097 4.72549 14.5128C4.79394 14.4402 4.83958 14.3434 4.83958 14.2466C4.86239 14.1497 4.8624 14.0529 4.8624 13.9561C4.8624 13.8592 4.83958 13.7624 4.79394 13.6656C4.74831 13.5688 4.70267 13.4961 4.63422 13.4235C4.56577 13.3509 4.47449 13.3025 4.38322 13.3025L-6.27263 9.71983C-6.40954 9.67141 -6.54644 9.67141 -6.68335 9.71983L-17.0882 13.2057C-17.1795 13.2299 -17.2479 13.2783 -17.3392 13.3267C-17.4077 13.3993 -17.4761 13.4719 -17.4989 13.5688C-17.5446 13.6656 -17.5674 13.7624 -17.5674 13.8592C-17.5674 13.9561 -17.5674 14.0529 -17.5446 14.1497C-17.5217 14.2466 -17.4761 14.3434 -17.4305 14.416C-17.3848 14.4886 -17.2936 14.5613 -17.2023 14.6097C-17.1338 14.6581 -17.0426 14.6823 -16.9285 14.6823C-16.8829 14.7065 -16.7916 14.7065 -16.7003 14.6823Z" fill="#F9623B"/>
<path fill-rule="evenodd" clip-rule="evenodd" d="M-21.744 15.7229L-7.11787 46.9985C-7.07224 47.1196 -6.98097 47.2164 -6.8897 47.289C-6.66152 47.4342 -6.38771 47.4342 -6.15953 47.289C-6.04544 47.2164 -5.95417 47.1196 -5.88572 46.9985L3.03599 28.7221L3.05881 28.6979L8.76323 15.6987C8.80887 15.6019 8.83169 15.505 8.83169 15.4082C8.83169 15.3114 8.83169 15.2146 8.78605 15.1177C8.76323 15.0209 8.7176 14.9241 8.64914 14.8515C8.60351 14.7788 8.51224 14.7062 8.44378 14.6578C8.37533 14.6094 8.28406 14.5852 8.16997 14.5852C8.0787 14.5852 7.98743 14.5852 7.89616 14.6094C7.80489 14.6336 7.71362 14.682 7.64517 14.7546C7.57671 14.8272 7.50826 14.8999 7.48544 14.9967L1.78102 27.9959L-6.52462 45.0135L-20.5347 14.9967C-20.5803 14.9241 -20.6488 14.8272 -20.6944 14.7546C-20.7628 14.682 -20.8541 14.6336 -20.9454 14.6094C-21.0367 14.561 -21.1279 14.561 -21.2192 14.5852C-21.3105 14.5852 -21.4017 14.6094 -21.493 14.6578C-21.5615 14.7062 -21.6527 14.7788 -21.6984 14.8515C-21.744 14.9241 -21.7896 15.0209 -21.8125 15.1177C-21.8353 15.2146 -21.8581 15.3114 -21.8353 15.4082C-21.8125 15.5293 -21.7896 15.6261 -21.744 15.7229Z" fill="#F9623B"/>
<path fill-rule="evenodd" clip-rule="evenodd" d="M-14.7383 29.6663H1.55348C1.64475 29.6663 1.73602 29.6421 1.82729 29.6179C1.91856 29.5937 1.98701 29.521 2.03265 29.4484C2.1011 29.3758 2.14674 29.3032 2.16956 29.2063C2.23801 29.0127 2.23801 28.819 2.16956 28.6254C2.14674 28.5285 2.07829 28.4559 2.03265 28.3833C1.9642 28.3107 1.89574 28.2623 1.82729 28.2139C1.73602 28.1897 1.64475 28.1654 1.55348 28.1654H-14.7383C-14.8296 28.1654 -14.9209 28.1897 -15.0122 28.2139C-15.1034 28.2381 -15.1719 28.3107 -15.2175 28.3833C-15.286 28.4559 -15.3316 28.5285 -15.3544 28.6254C-15.4229 28.819 -15.4229 29.0127 -15.3544 29.2063C-15.3316 29.3032 -15.286 29.3758 -15.2175 29.4484C-15.1491 29.521 -15.0806 29.5695 -15.0122 29.6179C-14.9209 29.6421 -14.8296 29.6421 -14.7383 29.6663ZM30.6688 23.1546H20.0814C19.9902 23.1546 19.8989 23.1788 19.8076 23.203C19.7164 23.2272 19.6479 23.2998 19.6023 23.3724C19.5338 23.4451 19.4882 23.5177 19.4654 23.6145C19.4425 23.7113 19.4197 23.8082 19.4197 23.905V33.2247C19.4197 33.3216 19.4425 33.4184 19.4654 33.5152C19.4882 33.612 19.5338 33.6847 19.6023 33.7573C19.6707 33.8299 19.7392 33.8783 19.8076 33.9267C19.8989 33.9509 19.9902 33.9752 20.0814 33.9752H30.6688V35.5486H20.0814C19.9445 35.5486 19.8076 35.5244 19.6707 35.5002C19.5338 35.476 19.3969 35.4276 19.26 35.3792C19.1231 35.3307 19.009 35.2581 18.8949 35.1855C18.7808 35.0887 18.6896 34.9918 18.5755 34.895C18.3701 34.6772 18.2332 34.4351 18.1191 34.1688C18.0735 34.0236 18.0278 33.8783 18.005 33.7331C17.9822 33.5878 17.9594 33.4426 17.9594 33.2974V23.9292C17.9594 23.784 17.9822 23.6387 18.005 23.4935C18.0278 23.3482 18.0735 23.203 18.1191 23.0577C18.1647 22.9125 18.2332 22.7673 18.3017 22.6462C18.3701 22.5252 18.4614 22.4041 18.5755 22.3073C18.6667 22.2105 18.7808 22.1137 18.8949 22.0168C19.009 21.9442 19.1231 21.8716 19.26 21.8232C19.3969 21.7748 19.5338 21.7263 19.6707 21.7021C19.8076 21.6779 19.9445 21.6537 20.0814 21.6537H30.6688V23.1546ZM50.543 21.5811V23.1546H40.3435V27.7781H48.5351V29.3758H40.3435V33.9994H50.543V35.5728H38.9288V21.5811H50.543Z" fill="#F9623B"/>
</g>
</svg>
