<svg width="179" height="50" viewBox="0 0 179 50" fill="none" xmlns="http://www.w3.org/2000/svg">
<path d="M22.3771 0L0.974609 12.363V37.0808L22.3771 49.4355L43.7632 37.0808V12.363L22.3771 0ZM37.4268 33.4183L22.3771 42.1105L7.31918 33.4183V16.0172L22.3771 7.32499L37.4268 16.0172V33.4183Z" fill="#C4C4C4"/>
<g style="mix-blend-mode:multiply">
<path d="M22.3771 49.4355L43.7631 37.0808V12.363L22.3771 0V7.33329L37.4267 16.0255V33.4265L22.3771 42.1105V49.4355Z" fill="#C4C4C4"/>
</g>
<g style="mix-blend-mode:multiply">
<path d="M22.3605 0L0.974609 12.3547V37.0726L22.3605 49.4355V42.1023L7.31087 33.41V16.0089L22.3605 7.32499V0Z" fill="#C4C4C4"/>
</g>
<path d="M32.3576 30.4927L22.3687 36.2601L12.3715 30.4927V18.9501L22.3687 13.1746L32.3576 18.9501L28.1997 21.353L22.3687 17.9806L16.5377 21.353V28.0814L22.3687 31.4539L28.1997 28.0814L32.3576 30.4927Z" fill="#C4C4C4"/>
<path d="M59.5996 26.5904V26.5242C59.585 25.2144 59.8322 23.9149 60.3265 22.702C60.8212 21.489 61.5528 20.3872 62.4784 19.4609C63.4044 18.5347 64.5057 17.8029 65.718 17.3083C66.9304 16.8136 68.2296 16.5663 69.5389 16.5807C70.9742 16.5305 72.4027 16.8021 73.7198 17.3755C75.0368 17.949 76.2089 18.81 77.1506 19.8952L74.4089 22.8202C73.0755 21.4447 71.6672 20.4338 69.5057 20.4338C66.3335 20.4338 63.9892 23.1765 63.9892 26.4993V26.5739C63.9892 29.963 66.3335 32.6643 69.6795 32.6643C70.6262 32.6459 71.5586 32.4275 72.4148 32.0234C73.2714 31.6192 74.0328 31.0385 74.649 30.3193L77.2831 32.9211C75.9749 34.4851 74.2191 35.6107 72.2524 36.1468C70.2854 36.6828 68.2018 36.6034 66.2815 35.9196C64.3611 35.2355 62.696 33.9795 61.5104 32.3206C60.3247 30.6617 59.6751 28.6794 59.6491 26.6402L59.5996 26.5904Z" fill="#C4C4C4"/>
<path d="M81.201 16.9619H85.5992V21.2541C86.792 18.4037 88.9866 16.4564 92.3413 16.5973V21.221H92.0927C88.2661 21.221 85.5992 23.7068 85.5992 28.7531V36.0036H81.201V16.9619Z" fill="#C4C4C4"/>
<path d="M94.4364 26.5904V26.5241C94.502 23.8804 95.5947 21.3663 97.4837 19.5161C99.3724 17.666 101.908 16.6254 104.551 16.6157C107.194 16.606 109.737 17.6278 111.639 19.4641C113.541 21.3004 114.653 23.8064 114.737 26.4495V26.5241C114.738 27.8525 114.472 29.1675 113.956 30.3916C113.441 31.6155 112.684 32.7237 111.734 33.6506C110.782 34.5775 109.655 35.3043 108.419 35.788C107.181 36.2721 105.861 36.5028 104.533 36.4676C103.217 36.5007 101.908 36.2696 100.683 35.788C99.4568 35.3061 98.341 34.5834 97.3993 33.6625C96.4583 32.7417 95.7115 31.6414 95.2018 30.4267C94.6932 29.2119 94.4325 27.9075 94.4364 26.5904ZM110.373 26.5904V26.5241C110.406 25.7339 110.28 24.9451 110.002 24.2047C109.724 23.4642 109.3 22.7874 108.755 22.2144C108.211 21.6414 107.555 21.184 106.83 20.8696C106.105 20.5551 105.323 20.39 104.533 20.384C101.03 20.384 98.7933 23.1267 98.7933 26.4495V26.5241C98.7634 27.3076 98.8909 28.0891 99.1676 28.8225C99.4451 29.5559 99.866 30.2263 100.407 30.7941C100.947 31.3619 101.596 31.8155 102.315 32.1281C103.033 32.4408 103.808 32.6061 104.591 32.6144C108.136 32.6144 110.373 29.8717 110.373 26.5904Z" fill="#C4C4C4"/>
<path d="M119.136 16.9626H123.517V19.8876C124.138 18.8667 125.013 18.0245 126.057 17.4436C127.101 16.8625 128.278 16.5626 129.473 16.5731C133.763 16.5731 136.248 19.4568 136.248 23.8567V36.0125H131.883V25.1825C131.883 22.2243 130.408 20.534 127.808 20.534C125.207 20.534 123.517 22.3072 123.517 25.2571V36.0292H119.119L119.136 16.9626Z" fill="#C4C4C4"/>
<path d="M140.488 26.5904V26.5241C140.554 23.8804 141.646 21.3663 143.536 19.5161C145.424 17.666 147.959 16.6254 150.602 16.6157C153.246 16.606 155.789 17.6278 157.691 19.4641C159.593 21.3004 160.705 23.8064 160.789 26.4495V26.5241C160.79 27.8525 160.524 29.1675 160.008 30.3916C159.492 31.6155 158.736 32.7237 157.785 33.6506C156.833 34.5775 155.707 35.3043 154.47 35.788C153.233 36.2721 151.913 36.5028 150.585 36.4676C149.269 36.5007 147.959 36.2696 146.734 35.788C145.508 35.3061 144.393 34.5834 143.451 33.6625C142.51 32.7417 141.763 31.6414 141.254 30.4267C140.745 29.2119 140.484 27.9075 140.488 26.5904ZM156.424 26.5904V26.5241C156.457 25.7339 156.332 24.9451 156.054 24.2047C155.776 23.4642 155.352 22.7874 154.807 22.2144C154.262 21.6414 153.607 21.184 152.882 20.8696C152.157 20.5551 151.375 20.39 150.585 20.384C147.081 20.384 144.845 23.1267 144.845 26.4495V26.5241C144.815 27.3076 144.943 28.0891 145.22 28.8225C145.497 29.5559 145.918 30.2263 146.459 30.7941C146.999 31.3619 147.648 31.8155 148.367 32.1281C149.085 32.4408 149.86 32.6061 150.643 32.6144C154.163 32.6144 156.424 29.8717 156.424 26.5904Z" fill="#C4C4C4"/>
<path d="M163.672 33.518L165.618 30.5599C167.397 31.9815 169.58 32.8025 171.855 32.9048C173.735 32.9048 174.812 32.0762 174.812 30.8499V30.7753C174.812 29.3003 172.799 28.7949 170.563 28.1071C167.747 27.2785 164.607 26.1599 164.607 22.5554V22.4808C164.607 18.8349 167.606 16.639 171.391 16.639C173.878 16.6853 176.302 17.4351 178.381 18.8017L176.651 21.9008C175.049 20.8443 173.198 20.2245 171.283 20.1027C169.627 20.1027 168.616 20.9313 168.616 21.9753V22.0499C168.616 23.4586 170.67 24.0303 172.907 24.7512C175.681 25.6213 178.821 26.8808 178.821 30.3113V30.3775C178.821 34.3881 175.715 36.3686 171.747 36.3686C168.813 36.3476 165.969 35.344 163.672 33.518Z" fill="#C4C4C4"/>
</svg>
