<svg width="58" height="54" viewBox="0 0 58 54" fill="none" xmlns="http://www.w3.org/2000/svg">
<path d="M19.2663 1.02302C20.5564 0.339984 22.5448 0.339984 23.835 1.02302L37.0707 7.97477C37.8448 8.38459 38.2849 8.99173 38.3608 9.62922H38.376V44.6005C38.3608 45.2835 37.9206 45.9665 37.0707 46.4219L23.835 53.3736C22.5448 54.0567 20.5564 54.0567 19.2663 53.3736L6.03063 46.4219C5.18063 45.9817 4.78599 45.2835 4.75563 44.6005C4.75563 44.5398 4.75563 44.479 4.75563 44.4335V9.8569C4.75563 9.82654 4.75563 9.78101 4.75563 9.75065V9.6444C4.81635 9.0069 5.22617 8.41494 6.01545 7.98995L19.2511 1.03819L19.2663 1.02302ZM36.2965 29.1488L23.835 35.6907C22.5448 36.3737 20.5564 36.3737 19.2663 35.6907L6.83509 29.1639V44.5398L19.2663 51.0362C19.9645 51.4156 20.6931 51.7799 21.4064 51.8254H21.543C22.2868 51.8254 23.0002 51.446 23.7439 51.0969L36.2965 44.479V29.1488ZM2.60029 43.8567C2.60029 45.1924 2.75207 46.0728 3.07082 46.6951C3.32885 47.2112 3.70832 47.6058 4.42171 48.0764L4.46724 48.1067C4.61903 48.213 4.78599 48.3192 4.99849 48.4406L5.24134 48.5924L6.00027 49.0478L4.9226 50.8237L4.08778 50.3228L3.95117 50.2317C3.70832 50.0799 3.511 49.9585 3.31368 49.8219C1.29494 48.471 0.551189 46.9987 0.536011 43.9478V43.8567H2.61546H2.60029ZM20.5109 19.7836C20.4198 19.814 20.3288 19.8595 20.2377 19.9051L7.00205 26.8568C6.98687 26.8568 6.97169 26.872 6.95651 26.872H6.94134L6.95651 26.8872L6.98687 26.9024L20.2225 33.8541C20.2984 33.8996 20.3895 33.93 20.4957 33.9755V19.7685L20.5109 19.7836ZM22.5904 19.7836V33.9907C22.6814 33.9604 22.7725 33.9148 22.8636 33.8693L36.0992 26.9175C36.1144 26.9175 36.1296 26.9024 36.1448 26.9024H36.1599L36.1448 26.8872L36.1144 26.872L22.8788 19.9202C22.8029 19.8747 22.7118 19.8444 22.6055 19.7988L22.5904 19.7836ZM36.2814 12.1337L24.3966 18.372L36.2814 24.6104V12.1337ZM6.81991 12.1489V24.5952L18.6743 18.372L6.81991 12.1489ZM22.8484 2.87479C22.1654 2.51051 20.9207 2.51051 20.2225 2.87479L6.98687 9.82654C6.97169 9.82654 6.95651 9.84172 6.94134 9.84172H6.92616L6.94134 9.8569L6.97169 9.87208L20.2073 16.8238C20.8904 17.1881 22.135 17.1881 22.8332 16.8238L36.0689 9.87208C36.084 9.87208 36.0992 9.8569 36.1144 9.8569H36.1296L36.1144 9.84172L36.084 9.82654L22.8484 2.87479ZM38.2394 3.63372L39.0742 4.13461L39.2108 4.22568C39.4537 4.37746 39.651 4.49889 39.8483 4.6355C41.8671 5.98638 42.6108 7.4587 42.626 10.5096V10.6006H40.5465C40.5465 9.26494 40.3947 8.38459 40.076 7.76227C39.818 7.2462 39.4385 6.85156 38.7251 6.38103L38.6796 6.35067C38.5278 6.24442 38.3608 6.13817 38.1483 6.01674L37.9055 5.86496L37.1465 5.4096L38.2242 3.63372H38.2394Z" fill="#C4C4C4"/>
<path d="M63.8152 43.1432V23.6388H69.2188V20.0719H63.8152V17.5067C63.8152 14.6076 65.0902 13.1505 67.625 13.1505C68.3536 13.1505 69.1429 13.2719 69.9625 13.5147V9.72013C68.9607 9.41656 67.8375 9.26477 66.6232 9.26477C64.2706 9.26477 62.4492 9.93262 61.1438 11.2835C59.8385 12.6192 59.201 14.5772 59.201 17.1424V20.0719H54.7537V23.6388H59.201V43.1432H63.8304H63.8152ZM82.6062 43.4619C84.3821 43.4619 85.9303 43.0976 87.266 42.3691C88.6017 41.6405 89.6035 40.578 90.2713 39.2119V43.1432H94.8552V20.0719H90.2713V23.8209C89.5731 22.4549 88.5562 21.3924 87.2508 20.6335C85.9303 19.8897 84.3973 19.5103 82.6214 19.5103C80.633 19.5103 78.8571 20.0111 77.3089 21.0281C75.7455 22.0299 74.5312 23.4567 73.6661 25.2933C72.8009 27.1299 72.3607 29.2245 72.3607 31.6075C72.3607 33.9905 72.7857 36.07 73.6509 37.8611C74.5009 39.6521 75.7 41.0334 77.2482 42.0048C78.7964 42.9762 80.5875 43.4771 82.6366 43.4771L82.6062 43.4619ZM83.6991 39.8039C81.5892 39.8039 79.95 39.0905 78.766 37.6486C77.5821 36.2066 77.0053 34.203 77.0053 31.6075C77.0053 28.9816 77.5973 26.9325 78.766 25.445C79.9348 23.9576 81.5741 23.229 83.6535 23.229C85.7633 23.229 87.3874 23.9424 88.541 25.3843C89.6946 26.8263 90.2562 28.8602 90.2562 31.5164C90.2562 34.1423 89.6794 36.1762 88.541 37.6334C87.4026 39.0905 85.7785 39.8039 83.6991 39.8039ZM106.209 43.1432V29.9986C106.209 27.9495 106.801 26.3254 107.969 25.0959C109.153 23.8817 110.717 23.2593 112.675 23.2593C114.39 23.2593 115.635 23.7147 116.409 24.6254C117.183 25.5361 117.577 27.0084 117.577 29.0272V43.128H122.207V28.754C122.207 22.5915 119.444 19.5103 113.904 19.5103C112.128 19.5103 110.55 19.9049 109.153 20.679C107.757 21.4531 106.694 22.5763 105.966 24.0486L105.556 20.0719H101.245C101.488 21.9995 101.61 24.1549 101.61 26.5683V43.1432H106.194H106.209ZM137.704 43.4619C138.994 43.4619 140.133 43.295 141.15 42.961V39.2119C140.33 39.4548 139.51 39.5762 138.721 39.5762C137.492 39.5762 136.551 39.2423 135.852 38.5896C135.169 37.9369 134.82 36.8137 134.82 35.22V23.6388H141.195V20.0719H134.82V12.6951L130.191 14.304V20.0719H125.698V23.6388H130.191V35.5843C130.191 38.1494 130.843 40.1075 132.164 41.4432C133.485 42.7789 135.321 43.4619 137.704 43.4619ZM155.402 43.4619C157.634 43.4619 159.607 42.9762 161.322 41.9896C163.037 41.0182 164.358 39.6218 165.283 37.8307C166.209 36.0245 166.68 33.9298 166.68 31.5164C166.68 29.1031 166.209 26.9933 165.283 25.1718C164.358 23.3504 163.037 21.954 161.322 20.9826C159.607 20.0111 157.634 19.5103 155.402 19.5103C153.141 19.5103 151.152 19.996 149.437 20.9826C147.722 21.954 146.401 23.3504 145.476 25.1718C144.55 26.9933 144.079 29.1031 144.079 31.5164C144.079 33.9298 144.55 36.0396 145.476 37.8307C146.401 39.6369 147.722 41.0182 149.437 41.9896C151.152 42.961 153.141 43.4619 155.402 43.4619ZM155.357 39.8039C153.247 39.8039 151.623 39.1057 150.469 37.6941C149.331 36.2825 148.754 34.2334 148.754 31.5164C148.754 28.8602 149.331 26.8111 150.5 25.3843C151.653 23.9424 153.292 23.229 155.402 23.229C157.482 23.229 159.091 23.9424 160.244 25.3843C161.398 26.8263 161.959 28.8602 161.959 31.5164C161.959 34.2334 161.398 36.2977 160.259 37.6941C159.136 39.1057 157.497 39.8039 155.357 39.8039ZM176.667 43.1432V30.0897C176.667 27.9799 177.183 26.3254 178.231 25.0959C179.263 23.8817 180.674 23.2593 182.45 23.2593C183.983 23.2593 185.091 23.7147 185.774 24.6254C186.457 25.5361 186.807 26.9933 186.807 28.9816V43.128H191.436V30.0745C191.436 27.9647 191.952 26.3102 192.969 25.0808C193.986 23.8665 195.398 23.2442 197.158 23.2442C198.691 23.2442 199.799 23.6995 200.482 24.6102C201.165 25.5209 201.515 26.9781 201.515 28.9665V43.1128H206.144V28.7388C206.144 22.5763 203.579 19.4951 198.448 19.4951C196.733 19.4951 195.2 19.8897 193.849 20.679C192.483 21.4683 191.451 22.5611 190.753 23.9272C189.66 20.9674 187.323 19.4799 183.741 19.4799C182.056 19.4799 180.599 19.8594 179.339 20.6183C178.079 21.3772 177.123 22.4701 176.455 23.8665L176.045 20.0263H171.734C171.977 21.954 172.099 24.1093 172.099 26.5227V43.0976H176.683L176.667 43.1432Z" fill="#C4C4C4"/>
</svg>
