<svg width="179" height="38" viewBox="0 0 179 38" fill="none" xmlns="http://www.w3.org/2000/svg">
<path fill-rule="evenodd" clip-rule="evenodd" d="M29.4498 11.8229C30.2933 11.3484 31.295 11.3484 32.0726 11.8229L32.0858 11.836L41.048 17.1475C41.9046 17.6351 42.3659 18.505 42.3659 19.4539V30.0108C42.3659 30.973 41.8256 31.8428 41.048 32.3173L32.1517 37.5496C31.3082 38.0241 30.3065 38.0241 29.5289 37.5496L20.6326 32.3173C19.7759 31.8296 19.3146 30.9598 19.3146 30.0108V26.3601L23.4135 23.8955V27.5462C23.4135 28.5084 23.9539 29.3782 24.7315 29.8527L29.4498 32.6336C30.2933 33.1081 31.295 33.1081 32.0726 32.6336L36.7909 29.7736C37.6476 29.286 38.1089 28.4161 38.1089 27.4672V21.8262C38.1089 20.8641 37.5685 19.9943 36.7909 19.5198L32.0726 16.7389C31.2291 16.2644 30.2274 16.2644 29.4498 16.7389L23.4135 20.3106L19.3146 22.7752L13.2783 26.3469C12.4348 26.8214 11.4332 26.8214 10.6556 26.3469L1.75925 21.1145C0.902574 20.6269 0.441284 19.757 0.441284 18.8081V8.25115C0.441284 7.28903 0.902574 6.41917 1.75925 5.9447L10.6556 0.712358C11.4991 0.237889 12.5007 0.237889 13.2783 0.712358L22.0165 5.9447C22.8731 6.43235 23.3344 7.30221 23.3344 8.25115V11.9019L19.2355 14.3665V10.7158C19.2355 9.75364 18.6952 8.88378 17.9176 8.40931L13.1992 5.62839C12.3557 5.15392 11.3541 5.15392 10.5765 5.62839L5.85814 8.40931C5.00146 8.89696 4.54017 9.76682 4.54017 10.7158V16.3435C4.54017 17.3056 5.08054 18.1755 5.85814 18.6499L10.6556 21.5099C11.4991 21.9844 12.5007 21.9844 13.2783 21.5099L19.3146 17.8592L23.4135 15.4736L29.4498 11.8229ZM58.682 25.754V34.5185H53.8319V9.60887H58.682V11.5463C59.7232 10.1756 61.4761 9.33209 63.743 9.33209C68.6723 9.33209 71.809 12.9565 71.809 18.4788C71.809 24.0011 68.3823 27.6255 63.3213 27.6255C61.3312 27.6255 59.631 26.9534 58.682 25.754ZM58.3921 18.4656C58.3921 21.4179 60.1054 23.3948 62.7282 23.3948C65.2851 23.3948 67.0248 21.4179 67.0248 18.4656C67.0248 15.487 65.2719 13.5101 62.7282 13.5101C60.1054 13.5101 58.3921 15.4738 58.3921 18.4656ZM82.8414 27.6255C88.2582 27.6255 92.1331 23.7507 92.1331 18.4788C92.1331 13.2069 88.2582 9.33209 82.8414 9.33209C77.4245 9.33209 73.5497 13.2069 73.5497 18.4788C73.5497 23.7507 77.4245 27.6255 82.8414 27.6255ZM82.8414 23.408C80.2186 23.408 78.4394 21.4047 78.4394 18.4788C78.4394 15.5266 80.2186 13.5232 82.8414 13.5232C85.4641 13.5232 87.2434 15.5266 87.2434 18.4788C87.2434 21.4047 85.4641 23.408 82.8414 23.408ZM99.9086 1.89948V27.3495H95.0585V1.89948H99.9086ZM114.499 9.60846L110.835 21.0484L107.131 9.60846H102.176L108.568 27.2034L105.985 34.5181H110.624L113.102 27.2693L119.494 9.60846H114.499ZM128.284 9.32037C130.406 9.32037 132.159 10.1375 133.134 11.3632L133.147 11.35V9.58397H138.037V28.3782C138.037 32.0817 135.388 34.5068 131.408 34.5068H122.538V30.6715H130.643C132.106 30.6715 133.187 29.5117 133.187 27.851V25.5314C132.278 26.8362 130.419 27.6138 128.363 27.6138C123.157 27.6138 120.047 23.9894 120.047 18.4671C120.047 12.9448 123.144 9.32037 128.284 9.32037ZM124.818 18.4671C124.818 21.4589 126.531 23.3963 129.114 23.3963C131.737 23.3963 133.451 21.4589 133.451 18.4671C133.451 15.4885 131.737 13.5115 129.114 13.5115C126.531 13.5115 124.818 15.4753 124.818 18.4671ZM150.255 27.6255C155.672 27.6255 159.547 23.7507 159.547 18.4788C159.547 13.2069 155.672 9.33209 150.255 9.33209C144.839 9.33209 140.964 13.2069 140.964 18.4788C140.964 23.7507 144.839 27.6255 150.255 27.6255ZM150.255 23.408C147.633 23.408 145.853 21.4047 145.853 18.4788C145.853 15.5266 147.633 13.5232 150.255 13.5232C152.878 13.5232 154.657 15.5266 154.657 18.4788C154.657 21.4047 152.878 23.408 150.255 23.408ZM167.085 17.6353V27.3487H162.209V9.60887H167.099V12.0735C168.074 10.3469 170.024 9.33209 172.436 9.33209C176.417 9.33209 179 12.2184 179 16.3042V27.3487H174.11V17.3849C174.11 15.2366 172.753 13.6946 170.723 13.6946C168.588 13.6946 167.085 15.342 167.085 17.6353Z" fill="#C4C4C4"/>
</svg>
