<svg width="206" height="42" viewBox="0 0 206 42" fill="none" xmlns="http://www.w3.org/2000/svg">
<path d="M13.003 17.9276L20.9489 9.97015L28.898 17.9341L33.5189 13.3014L20.9489 0.704834L8.37891 13.2982L13.003 17.9276Z" fill="#C4C4C4"/>
<path d="M0.489746 21.1986L5.11213 16.5676L9.73451 21.1986L5.11213 25.8296L0.489746 21.1986Z" fill="#C4C4C4"/>
<path d="M13.0031 24.4699L20.949 32.4306L28.8981 24.4667L33.5222 29.0929L33.519 29.0961L20.949 41.6927L8.37902 29.1026L8.37256 29.0961L13.0031 24.4699Z" fill="#C4C4C4"/>
<path d="M32.1556 21.2003L36.778 16.5694L41.4004 21.2003L36.778 25.8313L32.1556 21.2003Z" fill="#C4C4C4"/>
<path d="M25.6378 21.1981L20.9491 16.4974L17.4818 19.9711L17.0811 20.3693L16.2604 21.1916L16.2539 21.1981L16.2604 21.2078L20.9491 25.902L25.6378 21.2013L25.641 21.1981H25.6378Z" fill="#C4C4C4"/>
<path d="M48.6123 10.6371H58.6683C61.1629 10.6371 63.05 11.2846 64.3296 12.5795C64.8117 13.0578 65.1918 13.6293 65.4468 14.2593C65.7017 14.8893 65.8263 15.5645 65.8128 16.2442V16.3057C65.8215 16.8625 65.7441 17.4172 65.5834 17.9503C65.4402 18.4092 65.2324 18.8452 64.9662 19.2452C64.718 19.6224 64.4178 19.9625 64.0744 20.2553C63.7388 20.5446 63.3713 20.7944 62.9789 20.9999C64.1104 21.3947 65.1279 22.0617 65.9421 22.9423C66.6616 23.7624 67.0213 24.8955 67.0213 26.3415V26.403C67.0418 27.3061 66.8457 28.2009 66.4494 29.0123C66.0654 29.7599 65.5026 30.4006 64.8111 30.877C64.0294 31.4021 63.1589 31.7806 62.2422 31.9939C61.153 32.2527 60.0364 32.3777 58.9171 32.3662H48.6123V10.6371ZM57.6601 19.4233C58.5301 19.4654 59.3959 19.2779 60.1709 18.8794C60.4731 18.7025 60.7198 18.4445 60.8832 18.1343C61.0465 17.8242 61.1199 17.4745 61.095 17.1248V17.0632C61.111 16.741 61.0457 16.4199 60.9051 16.1296C60.7644 15.8393 60.553 15.5893 60.2904 15.4025C59.754 15.0205 58.9796 14.8295 57.9671 14.8295H53.2622V19.4233H57.6601ZM58.93 28.1803C59.7968 28.229 60.6596 28.0303 61.4182 27.6073C61.7137 27.4171 61.9529 27.151 62.1109 26.8367C62.2689 26.5224 62.3399 26.1714 62.3165 25.8203V25.7588C62.3281 25.425 62.2579 25.0935 62.112 24.7933C61.9661 24.493 61.749 24.2332 61.4796 24.0365C60.9238 23.6049 60.0255 23.389 58.7846 23.389H53.2622V28.1803H58.93Z" fill="#C4C4C4"/>
<path d="M73.0123 10.6371H77.785V32.3727H73.0123V10.6371Z" fill="#C4C4C4"/>
<path d="M85.0071 10.6371H89.4082L99.5805 24.0138V10.6371H104.292V32.3727H100.23L89.7249 18.5557V32.3727H85.0071V10.6371Z" fill="#C4C4C4"/>
<path d="M118.742 10.4819H123.137L132.434 32.3729H127.451L125.467 27.4975H116.293L114.309 32.3729H109.443L118.742 10.4819ZM123.764 23.276L120.875 16.225L117.999 23.276H123.764Z" fill="#C4C4C4"/>
<path d="M137.594 10.6371H141.995L152.161 24.0138V10.6371H156.873V32.3727H152.811L142.306 18.5557V32.3727H137.594V10.6371Z" fill="#C4C4C4"/>
<path d="M174.05 32.7551C172.529 32.7681 171.021 32.473 169.617 31.8874C168.295 31.3405 167.095 30.534 166.089 29.5154C165.083 28.4968 164.291 27.2868 163.758 25.9566C163.197 24.5652 162.913 23.0772 162.922 21.5765V21.5149C162.897 18.5567 164.033 15.7071 166.085 13.5802C167.095 12.5412 168.304 11.7176 169.64 11.1586C171.092 10.5557 172.652 10.255 174.225 10.2748C175.155 10.2679 176.083 10.3514 176.997 10.5241C177.779 10.6723 178.544 10.9012 179.279 11.2072C179.946 11.4884 180.579 11.8423 181.169 12.2626C181.744 12.6724 182.285 13.1294 182.785 13.6287L179.75 17.138C178.975 16.4214 178.105 15.8147 177.165 15.3348C176.242 14.8925 175.229 14.6709 174.205 14.6874C173.354 14.6783 172.51 14.8508 171.73 15.1935C170.95 15.5362 170.252 16.0413 169.682 16.6751C169.116 17.3073 168.673 18.0396 168.376 18.8344C168.065 19.6744 167.908 20.5639 167.914 21.4599V21.5214C167.911 22.4161 168.067 23.3041 168.376 24.1437C168.67 24.9413 169.108 25.6778 169.669 26.316C170.234 26.9577 170.931 27.4701 171.711 27.8186C172.492 28.1672 173.338 28.3436 174.193 28.3361C175.281 28.3704 176.36 28.1358 177.337 27.653C178.266 27.1455 179.125 26.5187 179.893 25.7883L182.93 28.8638C182.394 29.4469 181.814 29.9881 181.195 30.4824C180.587 30.964 179.927 31.3756 179.227 31.7094C178.481 32.0611 177.696 32.3209 176.887 32.4831C175.954 32.6707 175.003 32.7618 174.05 32.7551Z" fill="#C4C4C4"/>
<path d="M188.562 10.6371H204.891V14.891H193.258V19.3003H203.501V23.5541H193.274V28.1188H205.052V32.3727H188.572L188.562 10.6371Z" fill="#C4C4C4"/>
</svg>
