<svg width="236" height="73" viewBox="0 0 236 73" fill="none" xmlns="http://www.w3.org/2000/svg">
<rect width="235.178" height="72.3963" fill="#060D13"/>
<path fill-rule="evenodd" clip-rule="evenodd" d="M128.31 21.8839C127.864 20.7333 126.76 19.9349 125.492 19.9114V19.8879H124.459H124.247C123.003 20.0053 121.923 20.8507 121.547 22.0483L116.498 34.3293H112.624H112.459C111.403 34.4468 110.557 35.3391 110.557 36.4192V36.6071C110.651 37.6873 111.544 38.5326 112.624 38.5326H114.69L109.876 50.2501L109.806 50.438C109.735 50.6493 109.712 50.8372 109.712 51.0485C109.688 51.6355 109.9 52.1991 110.276 52.6218C110.675 53.0445 111.238 53.2558 111.825 53.2323C112.248 53.2323 112.671 53.0914 113.023 52.8331C113.375 52.5513 113.68 52.1991 113.845 51.7764L119.175 38.5561H122.838H123.003C124.059 38.4387 124.905 37.5464 124.905 36.4662V36.4192V36.2549C124.811 35.1747 123.919 34.3293 122.838 34.3293H120.866L124.952 24.2086L136.012 51.7764L136.106 51.9878C136.294 52.3165 136.528 52.5983 136.834 52.8331C137.186 53.0914 137.609 53.2323 138.031 53.2323C138.618 53.2558 139.182 53.0445 139.581 52.6218C139.98 52.1756 140.168 51.6121 140.145 51.0485V50.8841C140.145 50.6728 140.098 50.4615 140.004 50.2501L128.38 22.0718L128.31 21.8839ZM93.6033 21.8839C93.1572 20.7098 92.03 19.9349 90.762 19.9114V19.8879H89.7288H89.5175C88.2729 20.0053 87.1928 20.8507 86.8171 22.0483L81.7684 34.3293H77.9409H77.7765C76.7198 34.4468 75.8745 35.3391 75.8745 36.4192V36.6071C75.9684 37.6873 76.8607 38.5326 77.9409 38.5326H80.0073L75.1935 50.2501L75.123 50.438C75.0526 50.6493 75.0291 50.8372 75.0291 51.0485C75.0056 51.6355 75.217 52.1991 75.5927 52.6218C75.9919 53.0445 76.5554 53.2558 77.1425 53.2323C77.5652 53.2323 77.9878 53.0914 78.3401 52.8331C78.6923 52.5513 78.9976 52.1991 79.1619 51.7764L84.4923 38.5561H88.179H88.3434C89.4235 38.4622 90.2689 37.5699 90.2689 36.4662V36.4192V36.2549C90.175 35.1747 89.2827 34.3293 88.179 34.3293H86.2065L90.2454 24.2086L101.305 51.7764L101.399 51.9878C101.587 52.3165 101.822 52.5983 102.127 52.8331C102.48 53.0914 102.902 53.2323 103.325 53.2323C103.912 53.2558 104.475 53.0445 104.875 52.6218C105.227 52.2226 105.415 51.753 105.438 51.2364V50.8372C105.415 50.6493 105.368 50.438 105.297 50.2501L93.6738 22.0718L93.6033 21.8839ZM140.544 20.3106C140.192 20.0523 139.769 19.9114 139.346 19.9114C138.783 19.8645 138.219 20.0993 137.796 20.522C137.421 20.9681 137.209 21.5082 137.233 22.0952C137.233 22.377 137.28 22.6353 137.374 22.8936L148.997 51.072C149.396 52.34 150.571 53.2088 151.909 53.2323H152.942C154.281 53.2088 155.455 52.34 155.854 51.072L167.478 22.8936C167.572 22.6353 167.618 22.377 167.618 22.0952C167.618 21.5082 167.431 20.9446 167.031 20.522C166.632 20.0993 166.069 19.8879 165.505 19.9114C165.082 19.9114 164.66 20.0523 164.308 20.3106C163.955 20.5924 163.674 20.9446 163.486 21.3673L152.426 48.9351L141.366 21.3673C141.201 20.9446 140.896 20.5924 140.544 20.3106ZM194.388 20.7333C194.012 20.3341 193.496 20.0993 192.956 20.1228V20.1462H174.076C173.512 20.1228 172.972 20.3341 172.573 20.7568C172.174 21.1794 171.939 21.7195 171.963 22.3066V50.9546C171.963 51.5181 172.174 52.0582 172.573 52.4574C172.949 52.8801 173.512 53.1149 174.076 53.0679H192.956C193.496 53.0914 194.012 52.8801 194.388 52.5044C194.787 52.1287 195.022 51.6356 194.998 51.0955C194.998 50.5554 194.787 50.0388 194.388 49.6631C194.012 49.2639 193.496 49.0291 192.956 49.0525H176.26V38.6031H191.265C191.805 38.6031 192.322 38.3917 192.697 38.016C193.096 37.6403 193.331 37.1472 193.308 36.6071C193.308 36.067 193.073 35.5504 192.697 35.1747C192.322 34.7755 191.805 34.5407 191.265 34.5642H176.26V24.1617H192.956C193.496 24.1617 194.012 23.9503 194.388 23.5746C194.787 23.1989 195.022 22.7058 194.998 22.1657C194.998 21.6256 194.787 21.109 194.388 20.7333ZM51.9932 19.912C58.2864 19.912 63.382 25.0076 63.382 31.3007V35.2456V35.8L63.3821 35.8562V51.9413C63.3821 52.6693 62.795 53.2328 62.0905 53.2328C61.3626 53.2328 60.799 52.6458 60.799 51.9413V48.3251C60.799 47.6676 60.2355 47.151 59.531 47.1275H59.5075C58.8031 47.1275 58.216 47.6441 58.216 48.3016V49.9219C58.216 50.6029 57.6759 51.143 56.995 51.143C56.314 51.143 55.7739 50.6029 55.7739 49.9219V48.3251C55.7739 47.6676 55.2103 47.151 54.5059 47.1275H54.4824C53.7779 47.1275 53.1909 47.6441 53.1909 48.3016V48.6304C53.1909 49.3114 52.6508 49.8514 51.9698 49.8514C51.2888 49.8514 50.7488 49.3114 50.7488 48.6304V48.3251C50.7488 47.6676 50.1852 47.151 49.4807 47.1275H49.4573C48.7528 47.1275 48.1657 47.6441 48.1657 48.3016V49.9219C48.1657 50.6029 47.6257 51.143 46.9447 51.143C46.2637 51.143 45.7236 50.6029 45.7236 49.9219V48.3251C45.7236 47.6676 45.1601 47.151 44.4556 47.1275H44.4321C43.7277 47.1275 43.1406 47.6441 43.1406 48.3016V48.3251V52.0118C43.1406 52.6928 42.6005 53.2328 41.9195 53.2328C41.2386 53.2328 40.6985 52.6928 40.6985 52.0118V46.8456H40.6045V46.0004V31.3007V31.0892C40.6045 30.1383 40.732 29.2466 40.9716 28.4194C42.2467 23.5229 46.6957 19.912 51.9932 19.912ZM45.3246 31.7017C45.3657 31.7823 45.4114 31.8601 45.4611 31.935C45.7692 32.3985 46.2362 32.7461 46.786 32.9015C46.0876 32.4553 45.6064 31.5594 45.6064 30.526C45.6064 29.7227 45.8902 29.0025 46.3452 28.512C46.2768 28.5473 46.2105 28.5859 46.1463 28.6274C45.495 29.0491 45.0661 29.782 45.0661 30.6197C45.0661 31.0101 45.1592 31.3777 45.3246 31.7017ZM45.8416 30.4799C45.8633 29.5125 46.3393 28.6895 47.0159 28.3276C46.3343 28.6913 45.8564 29.5198 45.8416 30.4799ZM49.7227 30.2177C49.7333 30.3186 49.7388 30.4215 49.7388 30.5258V30.5763C49.7391 30.5596 49.7392 30.5428 49.7392 30.526C49.7392 30.4216 49.7336 30.3187 49.7227 30.2177ZM49.7358 30.6692C49.6799 29.3939 48.8568 28.3655 47.8367 28.3655C46.7801 28.3655 45.9347 29.4457 45.9347 30.8076C45.9347 31.0528 45.9559 31.298 46.0183 31.5232C46.3258 32.3455 47.0017 32.9211 47.7902 32.9211C47.9273 32.9211 48.061 32.9037 48.19 32.8707C48.4714 32.7774 48.729 32.633 48.952 32.4485C49.401 32.0374 49.7007 31.3949 49.7358 30.6692ZM53.7312 31.7017C53.7729 31.7835 53.8193 31.8625 53.8699 31.9384C54.1855 32.4114 54.667 32.7633 55.2329 32.9125C54.5251 32.4701 54.0359 31.568 54.0359 30.526C54.0359 29.7058 54.339 28.9722 54.8133 28.4813C54.723 28.5247 54.636 28.5736 54.5527 28.6275C53.9015 29.0492 53.4727 29.782 53.4727 30.6197C53.4727 31.0101 53.5658 31.3777 53.7312 31.7017ZM56.5369 32.8895C56.9425 32.7669 57.3014 32.5391 57.5821 32.2376C57.9201 31.8308 58.1379 31.2749 58.1657 30.6597C58.1061 29.3888 57.2846 28.3655 56.2671 28.3655C55.2104 28.3655 54.3651 29.4457 54.3651 30.8076C54.3651 31.0561 54.3868 31.3047 54.4512 31.5323C54.7603 32.3498 55.4341 32.9211 56.2197 32.9211C56.3278 32.9211 56.4337 32.9103 56.5369 32.8895ZM54.2711 30.5493C54.2711 30.5668 54.2713 30.5843 54.2716 30.6018C54.271 30.5766 54.2707 30.5513 54.2707 30.526C54.2707 29.4833 54.8169 28.5883 55.5817 28.2623L55.5824 28.2622C54.8175 28.5889 54.2711 29.4879 54.2711 30.5493Z" fill="#C4C4C4"/>
</svg>
