<svg width="204" height="44" viewBox="0 0 204 44" fill="none" xmlns="http://www.w3.org/2000/svg">
<path d="M36.1099 13.791C35.2225 13.2495 34.0794 13.2495 33.1167 13.791L26.228 17.9574L21.5502 20.6798L14.6614 24.8461C13.774 25.3876 12.6309 25.3876 11.6683 24.8461L6.19333 21.5822C5.30591 21.0408 4.68923 20.0481 4.68923 18.9501V12.5276C4.68923 11.4446 5.21566 10.4519 6.19333 9.89538L11.578 6.72173C12.4654 6.18025 13.6085 6.18025 14.5712 6.72173L19.9559 9.89538C20.8433 10.4369 21.46 11.4296 21.46 12.5276V16.6939L26.1377 13.8812V9.71489C26.1377 8.63194 25.6113 7.63923 24.6336 7.08271L14.6614 1.11143C13.774 0.569953 12.6309 0.569953 11.6683 1.11143L1.51558 7.08271C0.53791 7.62419 0.0114746 8.61689 0.0114746 9.71489V21.7627C0.0114746 22.8457 0.53791 23.8384 1.51558 24.3949L11.6683 30.3662C12.5557 30.9077 13.6988 30.9077 14.6614 30.3662L21.5502 26.2901L26.228 23.4774L33.1167 19.4013C34.0042 18.8598 35.1473 18.8598 36.1099 19.4013L41.4946 22.575C42.382 23.1164 42.9987 24.1091 42.9987 25.2071V31.6447C42.9987 32.7276 42.4722 33.7203 41.4946 34.2769L36.1099 37.5408C35.2225 38.0822 34.0794 38.0822 33.1167 37.5408L27.7321 34.3671C26.8446 33.8256 26.228 32.8329 26.228 31.7349V27.5686L21.5502 30.3812V34.5476C21.5502 35.6306 22.0766 36.6233 23.0543 37.1798L33.207 43.1511C34.0944 43.6925 35.2375 43.6925 36.2001 43.1511L46.3528 37.1798C47.2402 36.6383 47.8569 35.6456 47.8569 34.5476V22.4997C47.8569 21.4168 47.3305 20.4241 46.3528 19.8676L36.1249 13.806L36.1099 13.791Z" fill="#C4C4C4"/>
<path d="M66.4776 39.6923V29.6901C67.5605 31.0588 69.5008 31.8259 71.772 31.8259C77.5478 31.8259 81.4584 27.6896 81.4584 21.3874C81.4584 15.0853 77.8787 10.949 72.2533 10.949C69.6663 10.949 67.6658 11.9116 66.4776 13.4759V11.2648H60.9425V39.6923H66.4776ZM71.0952 26.9977C68.102 26.9977 66.1467 24.7416 66.1467 21.3724C66.1467 17.9581 68.102 15.717 71.0952 15.717C73.9981 15.717 75.9986 17.9731 75.9986 21.3724C75.9986 24.7416 74.0131 26.9977 71.0952 26.9977Z" fill="#C4C4C4"/>
<path d="M94.0481 31.8259C100.23 31.8259 104.652 27.4038 104.652 21.3874C104.652 15.371 100.23 10.949 94.0481 10.949C87.8663 10.949 83.4442 15.371 83.4442 21.3874C83.4442 27.4038 87.8663 31.8259 94.0481 31.8259ZM94.0481 27.0128C91.055 27.0128 89.0244 24.7265 89.0244 21.3874C89.0244 18.0183 91.055 15.732 94.0481 15.732C97.0413 15.732 99.0718 18.0183 99.0718 21.3874C99.0718 24.7265 97.0413 27.0128 94.0481 27.0128Z" fill="#C4C4C4"/>
<path d="M113.526 31.5104V2.46619H107.991V31.5104H113.526Z" fill="#C4C4C4"/>
<path d="M130.177 11.2639L125.995 24.3195L121.769 11.2639H116.113L123.408 31.3437L120.46 39.6914H125.755L128.582 31.4189L135.877 11.2639H130.177Z" fill="#C4C4C4"/>
<path d="M151.444 13.2659C150.331 11.8671 148.331 10.9346 145.909 10.9346C140.043 10.9346 136.509 15.0708 136.509 21.373C136.509 27.6752 140.058 31.8115 146 31.8115C148.346 31.8115 150.467 30.9241 151.505 29.435V32.0822C151.505 33.9774 150.271 35.301 148.602 35.301H139.351V39.6779H149.474C154.016 39.6779 157.04 36.9104 157.04 32.6839V11.2354H151.459V13.2509L151.444 13.2659ZM146.857 26.9984C143.909 26.9984 141.954 24.7873 141.954 21.373C141.954 17.9587 143.909 15.7176 146.857 15.7176C149.85 15.7176 151.805 17.9738 151.805 21.373C151.805 24.7873 149.85 26.9984 146.857 26.9984Z" fill="#C4C4C4"/>
<path d="M170.983 31.8259C177.165 31.8259 181.587 27.4038 181.587 21.3874C181.587 15.371 177.165 10.949 170.983 10.949C164.801 10.949 160.379 15.371 160.379 21.3874C160.379 27.4038 164.801 31.8259 170.983 31.8259ZM170.983 27.0128C167.99 27.0128 165.959 24.7265 165.959 21.3874C165.959 18.0183 167.99 15.732 170.983 15.732C173.976 15.732 176.007 18.0183 176.007 21.3874C176.007 24.7265 173.976 27.0128 170.983 27.0128Z" fill="#C4C4C4"/>
<path d="M190.19 31.51V20.4248C190.19 17.8077 191.905 15.9275 194.341 15.9275C196.658 15.9275 198.207 17.6873 198.207 20.139V31.51H203.787V18.9057C203.787 14.243 200.839 10.949 196.297 10.949C193.544 10.949 191.318 12.1071 190.205 14.0775V11.2648H184.625V31.51H190.205H190.19Z" fill="#C4C4C4"/>
</svg>
