<svg width="206" height="52" viewBox="0 0 206 52" fill="none" xmlns="http://www.w3.org/2000/svg">
<path d="M58.4428 30.0894C58.4398 30.2684 58.3661 30.4389 58.2377 30.5637C58.1094 30.6885 57.9368 30.7574 57.7578 30.7554H45.1421C45.4655 33.876 47.806 36.7303 51.1169 36.7303C53.3813 36.7303 55.0558 35.874 56.3116 34.0663C56.3701 33.9714 56.451 33.8922 56.5472 33.8358C56.6434 33.7794 56.752 33.7475 56.8635 33.7428C56.9466 33.7405 57.0293 33.7551 57.1065 33.7858C57.1838 33.8165 57.254 33.8627 57.3127 33.9215C57.3715 33.9803 57.4177 34.0505 57.4484 34.1277C57.4791 34.205 57.4938 34.2877 57.4914 34.3708C57.4918 34.4856 57.4588 34.598 57.3963 34.6943C56.1214 36.9015 53.5906 37.9862 51.1169 37.9862C46.8736 37.9862 43.8291 34.1805 43.8291 30.1275C43.8291 26.0745 46.8546 22.2688 51.1169 22.2688C55.3793 22.2688 58.4238 26.0364 58.4428 30.0894ZM57.0918 29.4995C56.8254 26.3789 54.4279 23.5247 51.1169 23.5247C47.806 23.5247 45.4655 26.3789 45.1421 29.4995H57.0918Z" fill="#C4C4C4"/>
<path d="M73.7798 22.5718C73.9448 22.5766 74.1018 22.6443 74.2185 22.7611C74.3352 22.8778 74.4029 23.0347 74.4077 23.1998C74.4101 23.2829 74.3955 23.3656 74.3647 23.4428C74.334 23.5201 74.2879 23.5903 74.2291 23.649C74.1703 23.7078 74.1001 23.754 74.0229 23.7847C73.9456 23.8154 73.8629 23.8301 73.7798 23.8277H70.3928V37.1285C70.3913 37.2945 70.3246 37.4534 70.2072 37.5708C70.0898 37.6883 69.9309 37.7549 69.7648 37.7564C69.5998 37.7516 69.4429 37.6839 69.3261 37.5672C69.2094 37.4504 69.1417 37.2935 69.1369 37.1285V23.8277H65.8831C65.8 23.8301 65.7172 23.8154 65.64 23.7847C65.5627 23.754 65.4926 23.7078 65.4338 23.649C65.375 23.5903 65.3288 23.5201 65.2981 23.4428C65.2674 23.3656 65.2528 23.2829 65.2551 23.1998C65.2566 23.0337 65.3233 22.8748 65.4407 22.7574C65.5581 22.64 65.717 22.5733 65.8831 22.5718H69.1369V17.7196C69.1372 17.5588 69.1949 17.4034 69.2995 17.2814C69.4042 17.1593 69.5489 17.0785 69.7077 17.0536C69.7965 17.0418 69.8868 17.0494 69.9724 17.0757C70.0581 17.102 70.137 17.1465 70.2038 17.2061C70.2707 17.2657 70.3239 17.339 70.3598 17.4211C70.3956 17.5032 70.4134 17.592 70.4118 17.6816V22.5718H73.7798Z" fill="#C4C4C4"/>
<path d="M94.4253 29.0035V37.0524C94.4206 37.2175 94.3529 37.3744 94.2361 37.4912C94.1194 37.6079 93.9624 37.6756 93.7974 37.6804C93.7143 37.6827 93.6316 37.6681 93.5543 37.6374C93.4771 37.6067 93.4069 37.5605 93.3481 37.5017C93.2893 37.4429 93.2432 37.3728 93.2125 37.2955C93.1817 37.2183 93.1671 37.1356 93.1695 37.0524V29.0035C93.1695 26.2824 91.6282 23.5804 88.6027 23.5804C84.7209 23.5804 83.0464 26.9675 83.2748 30.4496C83.2748 30.5448 83.3128 30.9444 83.3128 31.0015V37.0334C83.3125 37.1942 83.2548 37.3496 83.1502 37.4717C83.0456 37.5938 82.9008 37.6745 82.742 37.6994C82.6532 37.7112 82.5629 37.7037 82.4773 37.6774C82.3917 37.6511 82.3127 37.6066 82.2459 37.547C82.1791 37.4873 82.1259 37.414 82.09 37.3319C82.0541 37.2499 82.0363 37.161 82.0379 37.0715V10.6032C82.0394 10.4371 82.1061 10.2782 82.2235 10.1608C82.3409 10.0433 82.4998 9.97671 82.6659 9.97522C82.8309 9.98001 82.9878 10.0477 83.1046 10.1644C83.2213 10.2812 83.289 10.4381 83.2938 10.6032V25.5594C84.3784 23.6185 86.3193 22.3055 88.5837 22.3055C92.3132 22.3055 94.4253 25.5594 94.4253 29.0035Z" fill="#C4C4C4"/>
<path d="M117.088 30.0894C117.085 30.2684 117.011 30.4389 116.883 30.5637C116.755 30.6885 116.582 30.7574 116.403 30.7554H103.787C104.111 33.876 106.451 36.7303 109.762 36.7303C112.027 36.7303 113.701 35.874 114.957 34.0663C115.015 33.9714 115.096 33.8922 115.192 33.8358C115.289 33.7794 115.397 33.7475 115.509 33.7428C115.592 33.7405 115.675 33.7551 115.752 33.7858C115.829 33.8165 115.899 33.8627 115.958 33.9215C116.017 33.9803 116.063 34.0505 116.094 34.1277C116.124 34.205 116.139 34.2877 116.137 34.3708C116.137 34.4856 116.104 34.598 116.042 34.6943C114.767 36.9015 112.236 37.9862 109.762 37.9862C105.519 37.9862 102.474 34.1805 102.474 30.1275C102.474 26.0745 105.5 22.2688 109.762 22.2688C113.986 22.2688 117.069 26.0364 117.088 30.0894ZM115.718 29.4995C115.452 26.3789 113.054 23.5247 109.743 23.5247C106.432 23.5247 104.092 26.3789 103.768 29.4995H115.718Z" fill="#C4C4C4"/>
<path d="M132.596 23.1625C132.608 23.3314 132.553 23.4983 132.443 23.6266C132.332 23.755 132.175 23.8344 132.006 23.8475C128.296 24.3993 126.621 27.4248 126.621 30.9451V36.977C126.621 37.1378 126.563 37.2932 126.459 37.4153C126.354 37.5374 126.209 37.6181 126.051 37.643C125.962 37.6548 125.872 37.6473 125.786 37.621C125.7 37.5947 125.621 37.5502 125.555 37.4906C125.488 37.431 125.434 37.3576 125.399 37.2756C125.363 37.1935 125.345 37.1046 125.347 37.0151V23.2577C125.347 23.0969 125.405 22.9415 125.509 22.8194C125.614 22.6973 125.759 22.6166 125.917 22.5917C126.006 22.5799 126.096 22.5874 126.182 22.6137C126.268 22.64 126.347 22.6845 126.413 22.7441C126.48 22.8037 126.533 22.8771 126.569 22.9591C126.605 23.0412 126.623 23.13 126.621 23.2196V26.0167C127.668 24.2471 129.742 22.5726 131.911 22.5726C132.235 22.5726 132.596 22.801 132.596 23.1625Z" fill="#C4C4C4"/>
<path d="M153.337 30.0894C153.334 30.2684 153.26 30.4389 153.132 30.5637C153.004 30.6885 152.831 30.7574 152.652 30.7554H140.036C140.36 33.876 142.7 36.7303 146.011 36.7303C148.276 36.7303 149.95 35.874 151.206 34.0663C151.264 33.9714 151.345 33.8922 151.442 33.8358C151.538 33.7794 151.646 33.7475 151.758 33.7428C151.841 33.7405 151.924 33.7551 152.001 33.7858C152.078 33.8165 152.148 33.8627 152.207 33.9215C152.266 33.9803 152.312 34.0505 152.343 34.1277C152.373 34.205 152.388 34.2877 152.386 34.3708C152.386 34.4856 152.353 34.598 152.291 34.6943C151.016 36.9015 148.485 37.9862 146.011 37.9862C141.768 37.9862 138.723 34.1805 138.723 30.1275C138.723 26.0745 141.749 22.2688 146.011 22.2688C150.274 22.2688 153.318 26.0364 153.337 30.0894ZM151.986 29.4995C151.72 26.3789 149.322 23.5247 146.011 23.5247C142.7 23.5247 140.36 26.3789 140.036 29.4995H151.986Z" fill="#C4C4C4"/>
<path d="M173.735 23.3148V37.1293C173.731 37.2943 173.663 37.4513 173.546 37.568C173.429 37.6847 173.272 37.7524 173.107 37.7572C173.024 37.7596 172.942 37.745 172.864 37.7142C172.787 37.6835 172.717 37.6374 172.658 37.5786C172.599 37.5198 172.553 37.4496 172.522 37.3724C172.492 37.2951 172.477 37.2124 172.479 37.1293V34.5034C171.433 36.5775 169.587 38.0807 167.228 38.0807C163.479 38.0807 161.405 34.8269 161.405 31.3827V23.2957C161.407 23.1297 161.473 22.9708 161.591 22.8534C161.708 22.7359 161.867 22.6693 162.033 22.6678C162.198 22.6726 162.355 22.7403 162.472 22.857C162.588 22.9738 162.656 23.1307 162.661 23.2957V31.3827C162.661 34.1038 164.202 36.8058 167.228 36.8058C171.471 36.8058 172.479 32.8289 172.479 28.4334V23.2767C172.481 23.1749 172.507 23.0749 172.555 22.9851C172.603 22.8953 172.671 22.8183 172.755 22.7606C172.839 22.7028 172.936 22.666 173.037 22.6532C173.138 22.6403 173.24 22.6519 173.336 22.6868C173.455 22.7424 173.557 22.8311 173.627 22.9424C173.698 23.0536 173.736 23.1829 173.735 23.3148Z" fill="#C4C4C4"/>
<path d="M205.684 28.947V37.034C205.679 37.1991 205.611 37.356 205.494 37.4727C205.378 37.5895 205.221 37.6572 205.056 37.662C204.973 37.6643 204.89 37.6497 204.813 37.619C204.735 37.5883 204.665 37.5421 204.606 37.4833C204.548 37.4245 204.501 37.3544 204.471 37.2771C204.44 37.1999 204.425 37.1171 204.428 37.034V28.947C204.428 26.226 202.886 23.562 199.861 23.562C196.055 23.562 194.609 27.6341 194.609 30.7928V37.034C194.604 37.1991 194.537 37.356 194.42 37.4727C194.303 37.5895 194.146 37.6572 193.981 37.662C193.898 37.6643 193.815 37.6497 193.738 37.619C193.661 37.5883 193.591 37.5421 193.532 37.4833C193.473 37.4245 193.427 37.3544 193.396 37.2771C193.366 37.1999 193.351 37.1171 193.353 37.034V28.947C193.353 26.226 191.812 23.562 188.787 23.562C184.943 23.562 183.363 26.5875 183.497 30.6215C183.497 30.7166 183.535 30.8879 183.497 30.945V37.015C183.496 37.1758 183.439 37.3312 183.334 37.4533C183.229 37.5753 183.085 37.6561 182.926 37.681C182.837 37.6928 182.747 37.6853 182.661 37.659C182.576 37.6327 182.497 37.5882 182.43 37.5285C182.363 37.4689 182.31 37.3956 182.274 37.3135C182.238 37.2315 182.22 37.1426 182.222 37.0531V23.2576C182.222 23.0968 182.28 22.9414 182.384 22.8193C182.489 22.6972 182.634 22.6165 182.793 22.5916C182.881 22.5798 182.972 22.5873 183.057 22.6136C183.143 22.6399 183.222 22.6844 183.289 22.744C183.356 22.8036 183.409 22.877 183.445 22.959C183.481 23.0411 183.498 23.13 183.497 23.2195V25.5219C184.581 23.581 186.522 22.3062 188.787 22.3062C191.355 22.3062 193.353 23.9426 194.172 26.3211C195.218 23.9616 197.254 22.3062 199.861 22.3062C203.571 22.3062 205.684 25.5219 205.684 28.947Z" fill="#C4C4C4"/>
<path opacity="0.6" d="M15.9719 19.5083L0.178467 26.682L15.9719 36.0248L31.7844 26.682L15.9719 19.5083Z" fill="white"/>
<path opacity="0.45" d="M0.178467 26.6825L15.9719 36.0254V0.461548L0.178467 26.6825Z" fill="white"/>
<path opacity="0.8" d="M15.9719 0.461548V36.0254L31.7844 26.6825L15.9719 0.461548Z" fill="white"/>
<path opacity="0.45" d="M0.178467 29.6898L15.9719 51.9529V39.0137L0.178467 29.6898Z" fill="white"/>
<path opacity="0.8" d="M15.9719 39.0137V51.9529L31.7844 29.6898L15.9719 39.0137Z" fill="white"/>
</svg>
