<svg width="65" height="49" viewBox="0 0 65 49" fill="none" xmlns="http://www.w3.org/2000/svg">
<path fill-rule="evenodd" clip-rule="evenodd" d="M7.99474 42.8199C7.99474 44.359 7.21451 45.7485 5.82505 46.3898L6.56253 47.3517L5.04481 48.1213L4.02944 46.7746H3.99737C1.48565 46.7746 0 44.9469 0 42.8199C0 40.693 1.48565 38.8653 3.99737 38.8653C6.50909 38.8653 7.99474 40.693 7.99474 42.8199ZM3.99737 45.2248C5.4189 45.2248 6.18845 44.1239 6.18845 42.8199C6.18845 41.516 5.4189 40.4151 3.99737 40.4151C2.56516 40.4151 1.79561 41.516 1.8063 42.8199C1.79561 44.1239 2.56516 45.2248 3.99737 45.2248ZM10.795 46.6997C9.55522 46.6997 8.89255 45.9302 8.89255 44.5942V41.4091H10.5492V44.2308C10.5492 44.9362 10.7844 45.321 11.4043 45.321C12.099 45.321 12.3983 44.8721 12.3983 44.1773V41.4091H14.0229V46.5608H12.3983V45.8233C12.1097 46.3684 11.5753 46.6997 10.795 46.6997ZM17.4324 46.6997C15.8933 46.6997 15.0062 45.5347 15.0062 43.985C15.0062 42.4459 15.9574 41.2702 17.4538 41.2702C18.2019 41.2702 18.7898 41.6229 19.0677 42.1466V41.4091H20.6923V46.5608H19.0677V45.834C18.7898 46.347 18.1485 46.6997 17.4324 46.6997ZM17.9027 45.3424C18.715 45.3424 19.1318 44.7331 19.1318 43.985C19.1318 43.2475 18.715 42.6382 17.9027 42.6382C17.1438 42.6382 16.6735 43.2047 16.6735 43.985C16.6735 44.7652 17.1438 45.3424 17.9027 45.3424ZM22.0497 41.4091H23.685V42.1573C23.9842 41.5801 24.5721 41.2702 25.3523 41.2702C26.6028 41.2702 27.2334 41.9756 27.2334 43.3757V46.5608H25.5875V43.9101C25.5875 43.0444 25.3416 42.6489 24.679 42.6489C24.027 42.6489 23.685 43.0765 23.685 43.8674V46.5608H22.0497V41.4091ZM31.2415 45.2889C31.4446 45.2889 31.6583 45.2782 31.808 45.2568V46.5608C31.5728 46.6036 31.1881 46.6463 30.7178 46.6463C29.9482 46.6463 28.8901 46.4753 28.8901 44.7545V42.7024H28.0778V41.4091H28.8901V39.8807H30.5254V41.4091H31.6904V42.7024H30.5254V44.4125C30.5254 45.1713 30.8353 45.2889 31.2415 45.2889ZM34.8113 46.7211C33.3043 46.7211 32.3744 45.9836 32.3744 45.011H33.999C33.999 45.3637 34.3411 45.6202 34.8434 45.6202C35.1961 45.6202 35.4419 45.4385 35.4419 45.1393C35.4419 44.9362 35.3457 44.7652 35.0679 44.7011L33.8067 44.3804C32.9516 44.1667 32.5134 43.6322 32.5134 42.8948C32.5134 41.9328 33.3577 41.2595 34.7151 41.2595C36.2222 41.2595 37.0131 41.8901 37.0131 42.8627H35.3992C35.3992 42.4993 35.132 42.2962 34.6938 42.2962C34.3411 42.2962 34.1059 42.4672 34.1059 42.7238C34.1059 42.9589 34.2662 43.1085 34.5441 43.1833L35.7626 43.5147C36.5535 43.7284 37.0665 44.2094 37.0665 44.9469C37.0665 46.005 36.2222 46.7211 34.8113 46.7211ZM40.786 45.2889C40.9891 45.2889 41.2029 45.2782 41.3525 45.2568V46.5608C41.1174 46.6036 40.7326 46.6463 40.2623 46.6463C39.4928 46.6463 38.4346 46.4753 38.4346 44.7545V42.7024H37.6223V41.4091H38.4346V39.8807H40.0699V41.4091H41.2349V42.7024H40.0699V44.4125C40.0699 45.1713 40.3799 45.2889 40.786 45.2889ZM44.3452 46.6997C42.8061 46.6997 41.919 45.5347 41.919 43.985C41.919 42.4459 42.8702 41.2702 44.3666 41.2702C45.1147 41.2702 45.7026 41.6229 45.9805 42.1466V41.4091H47.6051V46.5608H45.9805V45.834C45.7026 46.347 45.0613 46.6997 44.3452 46.6997ZM44.8155 45.3424C45.6278 45.3424 46.0446 44.7331 46.0446 43.985C46.0446 43.2475 45.6278 42.6382 44.8155 42.6382C44.0566 42.6382 43.5863 43.2047 43.5863 43.985C43.5863 44.7652 44.0566 45.3424 44.8155 45.3424ZM48.9625 41.4091H50.5978V42.1573C50.8222 41.6442 51.3566 41.2702 52.0727 41.2702C52.9919 41.2702 53.4622 41.6763 53.6866 42.2214C53.9645 41.6656 54.5737 41.2702 55.3326 41.2702C56.8076 41.2702 57.1603 42.2855 57.1603 43.365V46.5608H55.5143V43.6643C55.5143 42.9482 55.2471 42.6489 54.7448 42.6489C54.2317 42.6489 53.879 42.9375 53.879 43.9101V46.5608H52.233V43.6536C52.233 42.9375 51.9765 42.6489 51.4742 42.6489C50.9505 42.6489 50.5978 42.9375 50.5978 43.9101V46.5608H48.9625V41.4091ZM58.4536 41.4091H60.0888V42.1466C60.356 41.6549 60.9973 41.2702 61.7669 41.2702C63.1777 41.2702 64.1396 42.3604 64.1396 43.985C64.1396 45.5989 63.1457 46.6997 61.7241 46.6997C60.9653 46.6997 60.3454 46.315 60.0888 45.834V48.6984H58.4536V41.4091ZM61.2538 45.3424C61.97 45.3424 62.4723 44.7866 62.4723 43.985C62.4723 43.194 61.97 42.6382 61.2538 42.6382C60.5164 42.6382 60.014 43.1833 60.014 43.985C60.014 44.7973 60.5271 45.3424 61.2538 45.3424Z" fill="url(#paint0_linear_2_1698)"/>
<path d="M44.9498 15.9371C44.9511 13.4777 44.2361 11.0713 42.8922 9.01164L47.8867 4.01707L44.1353 0.265625L39.1449 5.2602C34.9355 2.51507 29.502 2.51507 25.2926 5.2602L20.2939 0.265625L16.5425 4.01707L21.5371 9.01164C18.7919 13.221 18.7919 18.6545 21.5371 22.8639L16.5425 27.8584L20.2939 31.6099L25.2885 26.6153C29.4979 29.3604 34.9313 29.3604 39.1407 26.6153L44.1353 31.6099L47.8867 27.8584L42.8922 22.868C44.2371 20.8068 44.9521 18.3983 44.9498 15.9371ZM24.7855 15.9371C24.7796 12.9034 26.6187 10.1708 29.4314 9.03414C32.2441 7.89745 35.4654 8.58495 37.5689 10.7709C39.6725 12.9569 40.2358 16.2021 38.9919 18.9691L34.091 14.0613L30.3382 17.8142L35.2404 22.715C32.9436 23.7476 30.2797 23.5438 28.1666 22.174C26.0536 20.8041 24.7803 18.4553 24.7855 15.9371Z" fill="url(#paint1_linear_2_1698)"/>
<defs>
<linearGradient id="paint0_linear_2_1698" x1="-28.8628" y1="43.8026" x2="81.7228" y2="43.8026" gradientUnits="userSpaceOnUse">
<stop stop-color="#0DCCF2"/>
<stop offset="1" stop-color="#AA00FF"/>
</linearGradient>
<linearGradient id="paint1_linear_2_1698" x1="2.43756" y1="16.0039" x2="56.4794" y2="16.0039" gradientUnits="userSpaceOnUse">
<stop stop-color="#0DCCF2"/>
<stop offset="1" stop-color="#AA00FF"/>
</linearGradient>
</defs>
</svg>
