<svg width="62" height="49" viewBox="0 0 62 49" fill="none" xmlns="http://www.w3.org/2000/svg">
<path fill-rule="evenodd" clip-rule="evenodd" d="M8.10568 42.8199C8.10568 44.359 7.37023 45.7485 6.06052 46.3898L6.75568 47.3517L5.32507 48.1213L4.36798 46.7746H4.33775C1.9702 46.7746 0.569824 44.9469 0.569824 42.8199C0.569824 40.693 1.9702 38.8653 4.33775 38.8653C6.7053 38.8653 8.10568 40.693 8.10568 42.8199ZM4.33775 45.2248C5.67769 45.2248 6.40306 44.1239 6.40306 42.8199C6.40306 41.516 5.67769 40.4151 4.33775 40.4151C2.98775 40.4151 2.26237 41.516 2.27245 42.8199C2.26237 44.1239 2.98775 45.2248 4.33775 45.2248ZM10.7453 46.6997C9.57659 46.6997 8.95196 45.9302 8.95196 44.5942V41.4091H10.5135V44.2308C10.5135 44.9362 10.7352 45.321 11.3195 45.321C11.9744 45.321 12.2565 44.8721 12.2565 44.1773V41.4091H13.7878V46.5608H12.2565V45.8233C11.9844 46.3684 11.4807 46.6997 10.7453 46.6997ZM17.0016 46.6997C15.5509 46.6997 14.7147 45.5347 14.7147 43.985C14.7147 42.4459 15.6113 41.2702 17.0218 41.2702C17.727 41.2702 18.2811 41.6229 18.5431 42.1466V41.4091H20.0744V46.5608H18.5431V45.834C18.2811 46.347 17.6766 46.6997 17.0016 46.6997ZM17.4449 45.3424C18.2106 45.3424 18.6035 44.7331 18.6035 43.985C18.6035 43.2475 18.2106 42.6382 17.4449 42.6382C16.7296 42.6382 16.2863 43.2047 16.2863 43.985C16.2863 44.7652 16.7296 45.3424 17.4449 45.3424ZM21.3539 41.4091H22.8953V42.1573C23.1774 41.5801 23.7315 41.2702 24.467 41.2702C25.6457 41.2702 26.2401 41.9756 26.2401 43.3757V46.5608H24.6886V43.9101C24.6886 43.0444 24.4569 42.6489 23.8323 42.6489C23.2177 42.6489 22.8953 43.0765 22.8953 43.8674V46.5608H21.3539V41.4091ZM30.0181 45.2889C30.2095 45.2889 30.411 45.2782 30.5521 45.2568V46.5608C30.3304 46.6036 29.9677 46.6463 29.5245 46.6463C28.7991 46.6463 27.8017 46.4753 27.8017 44.7545V42.7024H27.036V41.4091H27.8017V39.8807H29.3431V41.4091H30.4412V42.7024H29.3431V44.4125C29.3431 45.1713 29.6353 45.2889 30.0181 45.2889ZM33.3831 46.7211C31.9625 46.7211 31.086 45.9836 31.086 45.011H32.6174C32.6174 45.3637 32.9398 45.6202 33.4133 45.6202C33.7457 45.6202 33.9775 45.4385 33.9775 45.1393C33.9775 44.9362 33.8868 44.7652 33.6248 44.7011L32.436 44.3804C31.6301 44.1667 31.217 43.6322 31.217 42.8948C31.217 41.9328 32.0129 41.2595 33.2924 41.2595C34.7129 41.2595 35.4584 41.8901 35.4584 42.8627H33.9372C33.9372 42.4993 33.6853 42.2962 33.2722 42.2962C32.9398 42.2962 32.7181 42.4672 32.7181 42.7238C32.7181 42.9589 32.8692 43.1085 33.1312 43.1833L34.2797 43.5147C35.0252 43.7284 35.5088 44.2094 35.5088 44.9469C35.5088 46.005 34.7129 46.7211 33.3831 46.7211ZM39.0148 45.2889C39.2062 45.2889 39.4077 45.2782 39.5488 45.2568V46.5608C39.3271 46.6036 38.9644 46.6463 38.5211 46.6463C37.7958 46.6463 36.7984 46.4753 36.7984 44.7545V42.7024H36.0327V41.4091H36.7984V39.8807H38.3398V41.4091H39.4379V42.7024H38.3398V44.4125C38.3398 45.1713 38.632 45.2889 39.0148 45.2889ZM42.3697 46.6997C40.9189 46.6997 40.0827 45.5347 40.0827 43.985C40.0827 42.4459 40.9794 41.2702 42.3898 41.2702C43.0951 41.2702 43.6492 41.6229 43.9111 42.1466V41.4091H45.4424V46.5608H43.9111V45.834C43.6492 46.347 43.0447 46.6997 42.3697 46.6997ZM42.813 45.3424C43.5786 45.3424 43.9715 44.7331 43.9715 43.985C43.9715 43.2475 43.5786 42.6382 42.813 42.6382C42.0976 42.6382 41.6544 43.2047 41.6544 43.985C41.6544 44.7652 42.0976 45.3424 42.813 45.3424ZM46.7219 41.4091H48.2634V42.1573C48.4749 41.6442 48.9787 41.2702 49.6537 41.2702C50.5201 41.2702 50.9634 41.6763 51.1749 42.2214C51.4369 41.6656 52.0111 41.2702 52.7264 41.2702C54.1167 41.2702 54.4492 42.2855 54.4492 43.365V46.5608H52.8977V43.6643C52.8977 42.9482 52.6458 42.6489 52.1723 42.6489C51.6887 42.6489 51.3563 42.9375 51.3563 43.9101V46.5608H49.8048V43.6536C49.8048 42.9375 49.563 42.6489 49.0895 42.6489C48.5958 42.6489 48.2634 42.9375 48.2634 43.9101V46.5608H46.7219V41.4091ZM55.6682 41.4091H57.2097V42.1466C57.4615 41.6549 58.066 41.2702 58.7914 41.2702C60.1213 41.2702 61.028 42.3604 61.028 43.985C61.028 45.5989 60.091 46.6997 58.7511 46.6997C58.0358 46.6997 57.4515 46.315 57.2097 45.834V48.6984H55.6682V41.4091ZM58.3078 45.3424C58.9828 45.3424 59.4563 44.7866 59.4563 43.985C59.4563 43.194 58.9828 42.6382 58.3078 42.6382C57.6127 42.6382 57.1392 43.1833 57.1392 43.985C57.1392 44.7973 57.6227 45.3424 58.3078 45.3424Z" fill="#F9623B"/>
<path d="M42.9394 15.9371C42.9406 13.4777 42.2666 11.0713 40.9999 9.01164L45.7078 4.01707L42.1716 0.265625L37.4676 5.2602C33.4999 2.51507 28.3783 2.51507 24.4105 5.2602L19.6987 0.265625L16.1626 4.01707L20.8705 9.01164C18.2829 13.221 18.2829 18.6545 20.8705 22.8639L16.1626 27.8584L19.6987 31.6099L24.4066 26.6153C28.3744 29.3604 33.496 29.3604 37.4637 26.6153L42.1716 31.6099L45.7078 27.8584L40.9999 22.868C42.2676 20.8068 42.9416 18.3983 42.9394 15.9371ZM23.9324 15.9371C23.9269 12.9034 25.6605 10.1708 28.3117 9.03414C30.963 7.89745 33.9993 8.58495 35.9821 10.7709C37.965 12.9569 38.4959 16.2021 37.3234 18.9691L32.7039 14.0613L29.1665 17.8142L33.7873 22.715C31.6223 23.7476 29.1113 23.5438 27.1196 22.174C25.1278 20.8041 23.9276 18.4553 23.9324 15.9371Z" fill="#F9623B"/>
</svg>
