<svg width="179" height="39" viewBox="0 0 179 39" fill="none" xmlns="http://www.w3.org/2000/svg">
<path fill-rule="evenodd" clip-rule="evenodd" d="M29.4498 12.2192C30.2933 11.7447 31.295 11.7447 32.0726 12.2192L32.0858 12.2324L41.048 17.5438C41.9046 18.0315 42.3659 18.9013 42.3659 19.8503V30.4072C42.3659 31.3693 41.8256 32.2392 41.048 32.7137L32.1517 37.946C31.3082 38.4205 30.3065 38.4205 29.5289 37.946L20.6326 32.7137C19.7759 32.226 19.3146 31.3561 19.3146 30.4072V26.7564L23.4135 24.2918V27.9426C23.4135 28.9047 23.9539 29.7746 24.7315 30.2491L29.4498 33.03C30.2933 33.5044 31.295 33.5044 32.0726 33.03L36.7909 30.17C37.6476 29.6823 38.1089 28.8125 38.1089 27.8635V22.2226C38.1089 21.2605 37.5685 20.3906 36.7909 19.9162L32.0726 17.1352C31.2291 16.6608 30.2274 16.6608 29.4498 17.1352L23.4135 20.7069L19.3146 23.1715L13.2783 26.7432C12.4348 27.2177 11.4332 27.2177 10.6556 26.7432L1.75925 21.5109C0.902574 21.0233 0.441284 20.1534 0.441284 19.2045V8.64751C0.441284 7.68539 0.902574 6.81553 1.75925 6.34106L10.6556 1.10872C11.4991 0.634251 12.5007 0.634251 13.2783 1.10872L22.0165 6.34106C22.8731 6.82871 23.3344 7.69857 23.3344 8.64751V12.2983L19.2355 14.7629V11.1121C19.2355 10.15 18.6952 9.28014 17.9176 8.80567L13.1992 6.02475C12.3557 5.55028 11.3541 5.55028 10.5765 6.02475L5.85814 8.80567C5.00146 9.29332 4.54017 10.1632 4.54017 11.1121V16.7399C4.54017 17.702 5.08054 18.5718 5.85814 19.0463L10.6556 21.9063C11.4991 22.3808 12.5007 22.3808 13.2783 21.9063L19.3146 18.2555L23.4135 15.87L29.4498 12.2192ZM58.682 26.1504V34.9149H53.8319V10.0052H58.682V11.9426C59.7232 10.572 61.4761 9.72845 63.743 9.72845C68.6723 9.72845 71.809 13.3529 71.809 18.8752C71.809 24.3975 68.3823 28.0219 63.3213 28.0219C61.3312 28.0219 59.631 27.3497 58.682 26.1504ZM58.3921 18.862C58.3921 21.8142 60.1054 23.7912 62.7282 23.7912C65.2851 23.7912 67.0248 21.8142 67.0248 18.862C67.0248 15.8834 65.2719 13.9064 62.7282 13.9064C60.1054 13.9064 58.3921 15.8702 58.3921 18.862ZM82.8414 28.0219C88.2582 28.0219 92.1331 24.1471 92.1331 18.8752C92.1331 13.6033 88.2582 9.72845 82.8414 9.72845C77.4245 9.72845 73.5497 13.6033 73.5497 18.8752C73.5497 24.1471 77.4245 28.0219 82.8414 28.0219ZM82.8414 23.8044C80.2186 23.8044 78.4394 21.8011 78.4394 18.8752C78.4394 15.9229 80.2186 13.9196 82.8414 13.9196C85.4641 13.9196 87.2434 15.9229 87.2434 18.8752C87.2434 21.8011 85.4641 23.8044 82.8414 23.8044ZM99.9086 2.29584V27.7458H95.0585V2.29584H99.9086ZM114.499 10.0048L110.835 21.4448L107.131 10.0048H102.176L108.568 27.5997L105.985 34.9145H110.624L113.102 27.6656L119.494 10.0048H114.499ZM128.284 9.71674C130.406 9.71674 132.159 10.5339 133.134 11.7596L133.147 11.7464V9.98033H138.037V28.7746C138.037 32.4781 135.388 34.9032 131.408 34.9032H122.538V31.0679H130.643C132.106 31.0679 133.187 29.908 133.187 28.2474V25.9278C132.278 27.2326 130.419 28.0102 128.363 28.0102C123.157 28.0102 120.047 24.3857 120.047 18.8635C120.047 13.3412 123.144 9.71674 128.284 9.71674ZM124.818 18.8635C124.818 21.8552 126.531 23.7927 129.114 23.7927C131.737 23.7927 133.451 21.8552 133.451 18.8635C133.451 15.8848 131.737 13.9079 129.114 13.9079C126.531 13.9079 124.818 15.8717 124.818 18.8635ZM150.255 28.0219C155.672 28.0219 159.547 24.1471 159.547 18.8752C159.547 13.6033 155.672 9.72845 150.255 9.72845C144.839 9.72845 140.964 13.6033 140.964 18.8752C140.964 24.1471 144.839 28.0219 150.255 28.0219ZM150.255 23.8044C147.633 23.8044 145.853 21.8011 145.853 18.8752C145.853 15.9229 147.633 13.9196 150.255 13.9196C152.878 13.9196 154.657 15.9229 154.657 18.8752C154.657 21.8011 152.878 23.8044 150.255 23.8044ZM167.085 18.0317V27.7451H162.209V10.0052H167.099V12.4698C168.074 10.7433 170.024 9.72845 172.436 9.72845C176.417 9.72845 179 12.6148 179 16.7005V27.7451H174.11V17.7813C174.11 15.633 172.753 14.0909 170.723 14.0909C168.588 14.0909 167.085 15.7384 167.085 18.0317Z" fill="#C4C4C4"/>
</svg>
