<svg width="193" height="32" viewBox="0 0 193 32" fill="none" xmlns="http://www.w3.org/2000/svg">
<path fill-rule="evenodd" clip-rule="evenodd" d="M16.3428 0.159945C16.3428 0.159945 15.9377 0.128784 15.5949 0.128784C6.65167 0.128784 -0.297255 7.45164 0.0143555 16.4883C1.32312 15.1796 3.59788 14.2448 5.62335 14.0266C6.27773 9.47711 9.79893 5.86242 14.3173 5.11456C14.4731 3.30721 15.1586 1.56219 16.3428 0.159945ZM16.5921 27.3947C16.9971 27.3947 17.4334 27.3636 17.8385 27.3012C17.6204 28.2984 16.8725 30.355 15.9065 31.2587C24.1954 31.1029 31.1754 24.5591 31.1754 15.4289C31.1754 15.4289 28.8072 17.4543 24.4135 17.4543C19.9263 17.4543 15.9065 14.4006 14.6289 9.81988C15.1898 9.60175 15.7819 9.50827 16.3739 9.50827C16.9971 9.50827 17.6515 9.60175 18.2436 9.81988C19.3965 12.6867 21.4532 14.3071 24.6939 14.3071C28.6202 14.3071 30.7392 12.1881 30.7392 12.1881C29.4304 6.32984 24.8186 2.2789 20.0509 0.783167C18.9291 1.53103 17.8697 3.5565 17.7762 5.17688C21.2974 5.58197 23.2605 7.42048 23.2605 7.42048V11.0352C23.2605 11.0352 20.1756 8.26183 16.3739 8.26183C12.5723 8.26183 9.76777 10.3496 9.01991 14.0266C13.6317 14.681 17.3088 18.2957 17.9631 22.9387C20.8611 22.4713 23.1982 20.0407 23.1982 20.0407V23.7177C23.1982 23.7177 21.1727 26.1171 16.4362 26.1171C11.2947 26.1171 7.08792 22.8764 5.93496 18.5138C6.49586 18.358 7.05676 18.2645 7.61766 18.2645C8.24088 18.2645 8.8641 18.358 9.45616 18.5761C10.4845 20.7263 12.0114 22.1908 14.5977 22.8764C13.7876 19.324 11.5128 17.0492 7.21257 17.0492C5.1871 17.0492 1.94634 18.0464 0.544094 19.6979C2.03983 25.3381 6.55818 29.7006 12.2607 30.9471C13.1643 29.7941 13.881 28.5477 14.4419 27.2078C15.1586 27.3324 15.8753 27.3947 16.5921 27.3947ZM51.0558 21.8168C47.6281 21.8168 44.7924 19.2928 44.7924 15.4911C44.7924 11.6895 47.6281 9.16543 51.087 9.16543C52.9255 9.16543 54.764 9.69517 56.3532 10.6612V6.98415C55.6365 6.5479 53.4864 5.73771 51.087 5.73771C45.5091 5.73771 41.0531 9.97562 41.0531 15.4911C41.0531 21.0066 45.478 25.2445 51.0558 25.2445C53.4552 25.2445 55.6053 24.4344 56.322 23.9981V20.3211C54.7328 21.3183 52.9255 21.8168 51.0558 21.8168ZM72.7751 24.9641V15.7093C72.7751 12.7178 70.9989 10.9416 68.0386 10.9416C65.1718 10.9416 64.2058 12.8736 63.9565 13.4968V4.89636H60.5288V24.9329H63.9565V17.1115C63.9565 15.086 65.016 13.9642 66.7922 13.9642C68.6307 13.9642 69.3474 15.1795 69.3474 16.7999V24.9641H72.7751ZM91.4094 24.9641V22.0973H89.5709V11.2532H86.1432V13.6526C86.1432 13.6526 85.4888 10.9728 82.248 10.9728C78.7268 10.9728 75.8912 13.5591 75.8912 18.1087C75.8912 22.5647 78.4776 25.2445 82.0611 25.2445C84.7098 25.2445 85.9562 23.593 86.4236 21.9726V24.4344V24.4655C86.4548 24.7771 86.7041 24.9953 86.9845 24.9641H91.4094ZM82.9648 13.9019C85.0214 13.9019 86.2678 15.5223 86.2678 18.1087C86.2678 20.9132 84.9279 22.2842 82.809 22.2531C80.7212 22.2531 79.4747 20.7885 79.4747 18.0775C79.4747 15.3665 80.9704 13.9019 82.9648 13.9019ZM99.262 24.9641V11.783V11.7206C99.262 11.4402 99.0127 11.2221 98.7323 11.2221H93.3414V14.12H95.8343V24.9641H99.262ZM95.4603 8.35524H99.1685V4.89636H95.4603V8.35524ZM106.678 11.2221H103.282L103.313 24.9329H106.741V17.1115C106.741 15.086 107.8 13.9642 109.576 13.9642C111.415 13.9642 112.132 15.1795 112.132 16.7999V24.9641H115.559V15.7093C115.559 12.7178 113.783 10.9416 110.823 10.9416C107.613 10.9416 106.803 13.2787 106.678 13.6526V11.2221ZM134.162 24.9641V22.0973H132.324V11.2532H128.896V13.6526C128.896 13.6526 128.242 10.9728 125.001 10.9728C121.48 10.9728 118.644 13.5591 118.644 18.1087C118.644 22.5647 121.231 25.2445 124.814 25.2445C127.463 25.2445 128.709 23.593 129.177 21.9726V24.4344V24.4655C129.208 24.7771 129.457 24.9953 129.738 24.9641H134.162ZM125.718 13.9019C127.774 13.9019 129.021 15.5223 129.021 18.1087C129.021 20.9132 127.681 22.2842 125.562 22.2531C123.474 22.2531 122.228 20.7885 122.228 18.0775C122.228 15.3665 123.723 13.9019 125.718 13.9019ZM141.174 24.9641V5.73771C141.174 5.2703 140.8 4.89636 140.363 4.89636H135.596V7.79434H137.746V24.9641H141.174ZM143.947 31.2898H147.375C149.369 31.2898 150.553 30.4796 151.301 28.6099L158.063 11.2221H154.23L150.896 20.9132L147.686 11.2221H143.854L149.151 24.7148L148.123 27.3012C147.78 28.1114 147.375 28.3918 146.471 28.3918H143.947V31.2898ZM159.933 20.7574V24.0916C160.556 24.4967 162.363 25.2445 164.576 25.2757C167.91 25.2757 170.185 23.5307 170.185 20.7885C170.185 17.7512 167.658 17.0941 165.645 16.5707C164.312 16.2241 163.205 15.9361 163.205 15.0549C163.205 14.2758 163.797 13.7773 165.417 13.7773C167.287 13.7773 168.658 14.6498 169.343 15.086V11.783C168.782 11.4714 167.349 10.9416 165.355 10.9416C161.709 10.9416 159.746 12.7178 159.746 15.0549C159.746 18.0554 162.105 18.6444 164.086 19.1391C165.52 19.4972 166.757 19.8059 166.757 20.9443C166.757 21.848 166.04 22.3154 164.42 22.3154C162.301 22.3154 160.4 21.069 159.933 20.7574ZM178.38 24.9641V11.783V11.7206C178.38 11.4402 178.131 11.2221 177.85 11.2221H172.459V14.12H174.952V24.9641H178.38ZM174.547 8.35524H178.255V4.89636H174.547V8.35524ZM182.057 20.7574V24.0916C182.68 24.4967 184.488 25.2445 186.669 25.2757C190.003 25.2757 192.278 23.5307 192.278 20.7885C192.278 17.7512 189.751 17.0941 187.738 16.5707C186.405 16.2241 185.298 15.9361 185.298 15.0549C185.298 14.2758 185.921 13.7773 187.541 13.7773C188.944 13.8084 190.315 14.2758 191.468 15.086V11.783C190.907 11.4714 189.473 10.9416 187.479 10.9416C183.833 10.9416 181.87 12.7178 181.87 15.0549C181.87 18.0554 184.229 18.6444 186.21 19.1391C187.645 19.4972 188.881 19.8059 188.881 20.9443C188.881 21.848 188.165 22.3154 186.544 22.3154C184.425 22.3154 182.524 21.069 182.057 20.7574Z" fill="#C4C4C4"/>
</svg>
