<svg width="142" height="46" viewBox="0 0 142 46" fill="none" xmlns="http://www.w3.org/2000/svg">
<path fill-rule="evenodd" clip-rule="evenodd" d="M8.5688 6.70503C10.9537 5.07888 15.2312 5.09043 16.5855 5.09409L16.7423 5.09439C17.8855 5.09439 29.5199 5.07959 29.5199 5.07959V0.396362H17.8646C16.1854 0.396362 9.50377 0.396362 5.85165 2.88643C3.89779 4.21847 0 7.27952 0 15.5444C0 23.809 3.89779 26.8701 5.85165 28.2021C9.50377 30.6921 16.1854 30.6921 17.8646 30.6921H29.5199V25.6192C29.5199 25.6192 17.8908 25.6356 16.7475 25.6356C15.6042 25.6356 11.0553 25.6356 8.5688 23.9404C7.45938 23.1838 5.43047 21.6068 4.78719 17.8401H29.5199V13.4237H4.69609C5.21133 9.20713 7.4003 7.5017 8.5688 6.70503ZM59.6718 30.6014C59.6718 30.6014 59.6749 18.9791 59.6749 17.8359L59.675 17.7098C59.6774 16.3898 59.6851 12.0534 58.0464 9.64999C57.1394 8.31995 55.0556 5.66614 49.4287 5.66614C43.8019 5.66614 41.7181 8.31995 40.8111 9.64999C39.1157 12.1365 39.1157 16.6856 39.1157 17.8288C39.1157 18.9721 39.1322 30.6014 39.1322 30.6014H34.0593V18.946C34.0593 17.2666 34.0593 10.5851 36.5494 6.93299C37.8814 4.97905 40.9425 1.08122 49.2071 1.08122C57.4719 1.08122 60.5327 4.97905 61.865 6.93299C64.3551 10.5851 64.3551 17.2666 64.3551 18.946V30.6014H59.6718ZM128.055 5.28607C129.198 5.28607 140.827 5.35603 140.827 5.35603V0.672803H129.172C127.493 0.672803 120.811 0.672804 117.159 3.16287C115.205 4.49516 111.307 7.55596 111.307 15.8208C111.307 24.0855 115.205 27.1465 117.159 28.4785C120.811 30.9686 127.493 30.9686 129.172 30.9686H140.827V25.8957C140.827 25.8957 129.198 25.9122 128.055 25.9122C126.912 25.9122 122.362 25.9122 119.876 24.2169C118.546 23.3098 115.892 21.2257 115.892 15.5991C115.892 9.9723 118.546 7.88847 119.876 6.98147C122.362 5.28607 126.912 5.28607 128.055 5.28607ZM68.9934 0.396633V30.6014H73.4099V0.396633H68.9934ZM95.3711 0.396362H102.61H107.027V5.07959V30.6921H102.61V5.05351C99.1895 5.03345 94.9235 5.00963 94.254 5.00963C93.1107 5.00963 88.5617 5.00963 86.0751 6.70503C84.7451 7.61178 82.0913 9.69587 82.0913 15.3227C82.0913 20.9496 84.7451 23.0334 86.0751 23.9404C88.5617 25.6356 93.1107 25.6356 94.254 25.6356C94.4405 25.6356 95.1931 25.6353 95.842 25.6345L95.8496 30.6921H95.3711C93.6917 30.6921 87.0102 30.6921 83.3581 28.2021C81.4042 26.8701 77.5063 23.809 77.5063 15.5444C77.5063 7.27952 81.4042 4.21847 83.3581 2.88643C87.0102 0.396362 93.6917 0.396362 95.3711 0.396362ZM140.827 32.6294H0V34.134H140.827V32.6294ZM83.0971 44.0794L80.4983 36.7104H79.387L82.6013 45.4643H83.6955L86.9099 36.7104H85.7985L83.1997 44.0794H83.0971ZM88.2734 36.7104V45.4643H93.6249V44.5239H89.3334V41.549H93.2829V40.6086H89.3334V37.6508H93.5565V36.7104H88.2734ZM102.409 45.4643V36.7104H101.366V43.6007H101.28L96.4929 36.7104H95.4671V45.4643H96.5271V38.5911H96.6126L101.383 45.4643H102.409ZM104.051 36.7104V37.6508H106.804V45.4643H107.864V37.6508H110.616V36.7104H104.051ZM119.057 36.7104H117.997V42.421C117.997 42.8484 117.903 43.2288 117.715 43.5622C117.53 43.8928 117.262 44.1535 116.911 44.3444C116.561 44.5325 116.142 44.6265 115.655 44.6265C115.168 44.6265 114.749 44.5325 114.398 44.3444C114.051 44.1535 113.783 43.8928 113.595 43.5622C113.407 43.2288 113.312 42.8484 113.312 42.421V36.7104H112.252V42.5064C112.252 43.1049 112.392 43.6391 112.671 44.1093C112.953 44.5767 113.35 44.9457 113.86 45.2164C114.37 45.4842 114.968 45.6182 115.655 45.6182C116.342 45.6182 116.94 45.4842 117.45 45.2164C117.96 44.9457 118.355 44.5767 118.634 44.1093C118.916 43.6391 119.057 43.1049 119.057 42.5064V36.7104ZM121.174 36.7104V45.4643H122.234V42.0448H124.149C124.225 42.0448 124.299 42.0434 124.372 42.0406L126.218 45.4643H127.449L125.471 41.8546C125.595 41.8125 125.712 41.7633 125.82 41.7071C126.256 41.4792 126.58 41.1657 126.791 40.7668C127.001 40.3678 127.107 39.9105 127.107 39.3947C127.107 38.8789 127.001 38.4187 126.791 38.0141C126.58 37.6095 126.255 37.2917 125.816 37.0609C125.377 36.8273 124.816 36.7104 124.132 36.7104H121.174ZM122.234 41.0874H124.115C124.582 41.0874 124.958 41.019 125.243 40.8822C125.531 40.7454 125.739 40.5516 125.867 40.3009C125.998 40.0473 126.064 39.7452 126.064 39.3947C126.064 39.0442 125.998 38.7379 125.867 38.4757C125.736 38.2136 125.527 38.0113 125.239 37.8688C124.951 37.7234 124.571 37.6508 124.098 37.6508H122.234V41.0874ZM128.873 36.7104V45.4643H134.225V44.5239H129.933V41.549H133.883V40.6086H129.933V37.6508H134.156V36.7104H128.873ZM140.23 37.8901C140.595 38.1295 140.803 38.4658 140.854 38.8989H141.88C141.866 38.4572 141.729 38.0625 141.47 37.7149C141.213 37.3673 140.866 37.0937 140.427 36.8942C139.988 36.6919 139.486 36.5907 138.922 36.5907C138.364 36.5907 137.858 36.6933 137.405 36.8985C136.955 37.1008 136.596 37.3858 136.328 37.7534C136.063 38.1181 135.93 38.5455 135.93 39.0357C135.93 39.6255 136.13 40.1028 136.529 40.4676C136.928 40.8323 137.469 41.113 138.153 41.3096L139.23 41.6174C139.538 41.7029 139.824 41.8026 140.089 41.9166C140.354 42.0306 140.568 42.1787 140.73 42.3611C140.893 42.5435 140.974 42.78 140.974 43.0707C140.974 43.3898 140.88 43.6691 140.692 43.9084C140.504 44.1449 140.249 44.3302 139.927 44.4641C139.605 44.5952 139.241 44.6607 138.837 44.6607C138.489 44.6607 138.164 44.6094 137.862 44.5068C137.563 44.4014 137.315 44.2418 137.118 44.0281C136.925 43.8115 136.814 43.538 136.785 43.2074H135.691C135.725 43.6862 135.872 44.1065 136.131 44.4684C136.393 44.8303 136.752 45.1124 137.208 45.3147C137.667 45.517 138.21 45.6182 138.837 45.6182C139.509 45.6182 140.081 45.5056 140.551 45.2805C141.024 45.0554 141.383 44.7519 141.628 44.3701C141.876 43.9882 142 43.5608 142 43.0878C142 42.6774 141.916 42.3312 141.748 42.0491C141.579 41.767 141.366 41.5362 141.106 41.3566C140.85 41.1743 140.581 41.0304 140.299 40.9249C140.019 40.8195 139.766 40.7369 139.538 40.677L138.649 40.4377C138.486 40.3949 138.308 40.3393 138.114 40.271C137.921 40.1997 137.735 40.11 137.559 40.0017C137.382 39.8905 137.237 39.7523 137.123 39.5871C137.012 39.4189 136.956 39.218 136.956 38.9844C136.956 38.7051 137.036 38.4558 137.195 38.2364C137.358 38.017 137.583 37.8446 137.871 37.7192C138.161 37.5938 138.501 37.5311 138.888 37.5311C139.418 37.5311 139.865 37.6508 140.23 37.8901Z" fill="#C4C4C4"/>
</svg>
