<svg width="193" height="32" viewBox="0 0 193 32" fill="none" xmlns="http://www.w3.org/2000/svg">
<path fill-rule="evenodd" clip-rule="evenodd" d="M16.3428 0.763583C16.3428 0.763583 15.9377 0.732422 15.5949 0.732422C6.65167 0.732422 -0.297255 8.05528 0.0143555 17.092C1.32312 15.7832 3.59788 14.8484 5.62335 14.6303C6.27773 10.0807 9.79893 6.46606 14.3173 5.71819C14.4731 3.91085 15.1586 2.16583 16.3428 0.763583ZM16.5921 27.9984C16.9971 27.9984 17.4334 27.9672 17.8385 27.9049C17.6204 28.902 16.8725 30.9587 15.9065 31.8623C24.1954 31.7065 31.1754 25.1627 31.1754 16.0325C31.1754 16.0325 28.8072 18.058 24.4135 18.058C19.9263 18.058 15.9065 15.0042 14.6289 10.4235C15.1898 10.2054 15.7819 10.1119 16.3739 10.1119C16.9971 10.1119 17.6515 10.2054 18.2436 10.4235C19.3965 13.2903 21.4532 14.9107 24.6939 14.9107C28.6202 14.9107 30.7392 12.7918 30.7392 12.7918C29.4304 6.93348 24.8186 2.88254 20.0509 1.3868C18.9291 2.13467 17.8697 4.16014 17.7762 5.78052C21.2974 6.18561 23.2605 8.02411 23.2605 8.02411V11.6388C23.2605 11.6388 20.1756 8.86546 16.3739 8.86546C12.5723 8.86546 9.76777 10.9533 9.01991 14.6303C13.6317 15.2846 17.3088 18.8993 17.9631 23.5423C20.8611 23.0749 23.1982 20.6444 23.1982 20.6444V24.3214C23.1982 24.3214 21.1727 26.7208 16.4362 26.7208C11.2947 26.7208 7.08792 23.48 5.93496 19.1175C6.49586 18.9617 7.05676 18.8682 7.61766 18.8682C8.24088 18.8682 8.8641 18.9617 9.45616 19.1798C10.4845 21.3299 12.0114 22.7945 14.5977 23.48C13.7876 19.9276 11.5128 17.6529 7.21257 17.6529C5.1871 17.6529 1.94634 18.65 0.544094 20.3016C2.03983 25.9417 6.55818 30.3043 12.2607 31.5507C13.1643 30.3978 13.881 29.1513 14.4419 27.8114C15.1586 27.936 15.8753 27.9984 16.5921 27.9984ZM51.0558 22.4205C47.6281 22.4205 44.7924 19.8964 44.7924 16.0948C44.7924 12.2931 47.6281 9.76907 51.087 9.76907C52.9255 9.76907 54.764 10.2988 56.3532 11.2648V7.58779C55.6365 7.15154 53.4864 6.34135 51.087 6.34135C45.5091 6.34135 41.0531 10.5793 41.0531 16.0948C41.0531 21.6103 45.478 25.8482 51.0558 25.8482C53.4552 25.8482 55.6053 25.038 56.322 24.6017V20.9247C54.7328 21.9219 52.9255 22.4205 51.0558 22.4205ZM72.7751 25.5677V16.3129C72.7751 13.3214 70.9989 11.5452 68.0386 11.5452C65.1718 11.5452 64.2058 13.4772 63.9565 14.1005V5.5H60.5288V25.5366H63.9565V17.7151C63.9565 15.6897 65.016 14.5679 66.7922 14.5679C68.6307 14.5679 69.3474 15.7832 69.3474 17.4035V25.5677H72.7751ZM91.4094 25.5677V22.7009H89.5709V11.8569H86.1432V14.2563C86.1432 14.2563 85.4888 11.5764 82.248 11.5764C78.7268 11.5764 75.8912 14.1628 75.8912 18.7123C75.8912 23.1683 78.4776 25.8482 82.0611 25.8482C84.7098 25.8482 85.9562 24.1966 86.4236 22.5763V25.038V25.0692C86.4548 25.3808 86.7041 25.5989 86.9845 25.5677H91.4094ZM82.9648 14.5056C85.0214 14.5056 86.2678 16.1259 86.2678 18.7123C86.2678 21.5168 84.9279 22.8879 82.809 22.8567C80.7212 22.8567 79.4747 21.3921 79.4747 18.6811C79.4747 15.9701 80.9704 14.5056 82.9648 14.5056ZM99.262 25.5677V12.3866V12.3243C99.262 12.0438 99.0127 11.8257 98.7323 11.8257H93.3414V14.7237H95.8343V25.5677H99.262ZM95.4603 8.95888H99.1685V5.5H95.4603V8.95888ZM106.678 11.8257H103.282L103.313 25.5366H106.741V17.7151C106.741 15.6897 107.8 14.5679 109.576 14.5679C111.415 14.5679 112.132 15.7832 112.132 17.4035V25.5677H115.559V16.3129C115.559 13.3214 113.783 11.5452 110.823 11.5452C107.613 11.5452 106.803 13.8823 106.678 14.2563V11.8257ZM134.162 25.5677V22.7009H132.324V11.8569H128.896V14.2563C128.896 14.2563 128.242 11.5764 125.001 11.5764C121.48 11.5764 118.644 14.1628 118.644 18.7123C118.644 23.1683 121.231 25.8482 124.814 25.8482C127.463 25.8482 128.709 24.1966 129.177 22.5763V25.038V25.0692C129.208 25.3808 129.457 25.5989 129.738 25.5677H134.162ZM125.718 14.5056C127.774 14.5056 129.021 16.1259 129.021 18.7123C129.021 21.5168 127.681 22.8879 125.562 22.8567C123.474 22.8567 122.228 21.3921 122.228 18.6811C122.228 15.9701 123.723 14.5056 125.718 14.5056ZM141.174 25.5677V6.34135C141.174 5.87393 140.8 5.5 140.363 5.5H135.596V8.39798H137.746V25.5677H141.174ZM143.947 31.8934H147.375C149.369 31.8934 150.553 31.0832 151.301 29.2136L158.063 11.8257H154.23L150.896 21.5168L147.686 11.8257H143.854L149.151 25.3184L148.123 27.9048C147.78 28.715 147.375 28.9955 146.471 28.9955H143.947V31.8934ZM159.933 21.361V24.6952C160.556 25.1003 162.363 25.8482 164.576 25.8793C167.91 25.8793 170.185 24.1343 170.185 21.3922C170.185 18.3548 167.658 17.6978 165.645 17.1743C164.312 16.8278 163.205 16.5398 163.205 15.6585C163.205 14.8795 163.797 14.3809 165.417 14.3809C167.287 14.3809 168.658 15.2534 169.343 15.6897V12.3866C168.782 12.075 167.349 11.5452 165.355 11.5452C161.709 11.5452 159.746 13.3214 159.746 15.6585C159.746 18.659 162.105 19.248 164.086 19.7427C165.52 20.1008 166.757 20.4095 166.757 21.548C166.757 22.4516 166.04 22.919 164.42 22.919C162.301 22.919 160.4 21.6726 159.933 21.361ZM178.38 25.5677V12.3866V12.3243C178.38 12.0438 178.131 11.8257 177.85 11.8257H172.459V14.7237H174.952V25.5677H178.38ZM174.547 8.95888H178.255V5.5H174.547V8.95888ZM182.057 21.361V24.6952C182.68 25.1003 184.488 25.8482 186.669 25.8793C190.003 25.8793 192.278 24.1343 192.278 21.3922C192.278 18.3548 189.751 17.6978 187.738 17.1743C186.405 16.8278 185.298 16.5398 185.298 15.6585C185.298 14.8795 185.921 14.3809 187.541 14.3809C188.944 14.4121 190.315 14.8795 191.468 15.6897V12.3866C190.907 12.075 189.473 11.5452 187.479 11.5452C183.833 11.5452 181.87 13.3214 181.87 15.6585C181.87 18.659 184.229 19.248 186.21 19.7427C187.645 20.1008 188.881 20.4095 188.881 21.548C188.881 22.4516 188.165 22.919 186.544 22.919C184.425 22.919 182.524 21.6726 182.057 21.361Z" fill="#C4C4C4"/>
</svg>
