<svg width="177" height="47" viewBox="0 0 177 47" fill="none" xmlns="http://www.w3.org/2000/svg">
<path fill-rule="evenodd" clip-rule="evenodd" d="M2.75696 14.268L3.41714 13.7493C3.14295 13.4569 2.93962 13.2211 2.78517 13.042C2.7404 12.9901 2.69973 12.9429 2.66264 12.9005L2.02604 13.3485C2.23823 13.655 2.49757 13.9615 2.75691 14.268L2.75696 14.268ZM3.70008 13.5371C3.44072 13.2778 3.20494 12.9948 2.96916 12.7119L3.53503 12.3111C3.72366 12.5233 3.95944 12.7826 4.26595 13.0891L3.70008 13.5371ZM11.1036 16.2014C11.0093 16.1543 10.8442 16.06 10.6084 15.9185L10.9621 15.3055C11.0446 15.3526 11.1213 15.3998 11.1979 15.4469C11.2745 15.4941 11.3512 15.5413 11.4337 15.5884L11.1036 16.2014ZM10.5141 17.286C10.4906 17.286 10.3019 17.1917 9.99541 17.0031L10.3255 16.4136C10.408 16.4608 10.4905 16.5138 10.5731 16.5669C10.6556 16.6199 10.7381 16.673 10.8206 16.7201L10.5141 17.286ZM9.79499 18.2074C9.70171 18.1549 9.57203 18.0819 9.40596 17.9934L9.71248 17.5218C9.77534 17.5577 9.8382 17.5971 9.90236 17.6372C10.0067 17.7025 10.1144 17.7699 10.2312 17.8283L9.97183 18.2999C9.95933 18.2999 9.90038 18.2667 9.79499 18.2074ZM9.06409 19.2902C8.96388 19.2312 8.86367 19.1723 8.76936 19.1251L9.12303 18.4885C9.21734 18.5357 9.31165 18.5946 9.40597 18.6535C9.50028 18.7125 9.59459 18.7714 9.6889 18.8186L9.35881 19.4552C9.2645 19.408 9.16429 19.3491 9.06409 19.2902ZM7.88514 18.5828C7.78495 18.518 7.68476 18.4531 7.59046 18.3942L8.01486 17.7104C8.1111 17.7929 8.22337 17.8674 8.33766 17.9432C8.41936 17.9974 8.5021 18.0523 8.58073 18.1113L8.17991 18.7714C8.08558 18.7125 7.98536 18.6476 7.88514 18.5828ZM8.9507 17.0001C9.0324 17.0543 9.11513 17.1092 9.19376 17.1681L8.88725 17.6633L8.88709 17.6632C8.69852 17.5453 8.50994 17.4275 8.2978 17.286L8.62789 16.7673C8.72413 16.8498 8.83641 16.9243 8.9507 17.0001ZM9.4767 16.6966C9.28808 16.6023 9.09945 16.4844 8.88725 16.3429L9.28807 15.7063C9.38431 15.7888 9.49659 15.8633 9.61088 15.9391C9.69258 15.9933 9.77531 16.0481 9.85394 16.1071L9.4767 16.6966ZM10.5377 15.0933L10.1605 15.6591C10.0693 15.594 9.96376 15.5289 9.85177 15.4598C9.761 15.4038 9.66601 15.3452 9.57101 15.2819L9.94823 14.7161C10.1349 14.8516 10.3363 14.9724 10.5376 15.0932L10.5377 15.0933ZM9.94823 14.7161L9.94826 14.716L9.85394 14.6453C9.88489 14.6694 9.91634 14.6929 9.94823 14.7161ZM9.57101 14.4567L9.19376 15.0225C9.09076 14.9453 8.98073 14.8751 8.86367 14.8004C8.76635 14.7383 8.66418 14.673 8.55715 14.5981L8.95467 14.0369C9.14884 14.1845 9.35992 14.33 9.57101 14.4567ZM8.88725 13.9851C8.90947 14.0024 8.93196 14.0197 8.95467 14.0369L8.95798 14.0323L8.88725 13.9851ZM8.52493 15.1577C8.648 15.2555 8.77455 15.3561 8.91082 15.4469L8.51 16.0835C8.39801 16.0213 8.29259 15.946 8.18334 15.8679C8.08558 15.798 7.98474 15.726 7.87339 15.6591L8.32137 14.999C8.38886 15.0496 8.45635 15.1032 8.52493 15.1577ZM7.70401 16.122C7.86234 16.2417 8.03291 16.3707 8.20348 16.4844L7.84981 17.0267C7.76239 16.9684 7.67898 16.9061 7.59462 16.8431C7.4742 16.7532 7.35186 16.6619 7.21321 16.5787L7.59046 16.0364C7.62746 16.0641 7.66537 16.0928 7.70401 16.122ZM6.80059 17.8637C6.69449 17.7871 6.58839 17.7104 6.48229 17.6397L6.95385 16.9795C6.99083 17.0072 7.02871 17.0359 7.06733 17.0651C7.22568 17.1848 7.39628 17.3138 7.56688 17.4275L7.1189 18.0877C7.01279 18.0169 6.90669 17.9403 6.80059 17.8637ZM8.27422 14.3623C8.06202 14.2209 7.84981 14.0558 7.63761 13.8908L8.10917 13.3485C8.29779 13.5135 8.48642 13.6786 8.69862 13.8201L8.27422 14.3623ZM7.41768 14.2525C7.58993 14.4035 7.77882 14.5691 7.9677 14.716L7.49614 15.3762C7.26036 15.2112 7.04816 15.0461 6.81238 14.8575L7.35468 14.1973C7.3754 14.2154 7.39641 14.2339 7.41768 14.2525ZM6.84776 15.4587C6.95975 15.5472 7.07174 15.6356 7.18963 15.7299L6.76523 16.2486C6.52945 16.0835 6.29367 15.8949 6.05789 15.7063L6.50587 15.1876C6.62376 15.2819 6.73576 15.3703 6.84776 15.4587ZM5.25623 16.6966L5.8221 16.0364C6.03431 16.225 6.27009 16.4136 6.52945 16.6023L6.01073 17.286C5.794 17.1284 5.57728 16.9543 5.37431 16.7913C5.33438 16.7592 5.29498 16.7276 5.25623 16.6966ZM6.89482 13.2956C6.80621 13.2181 6.71682 13.14 6.62376 13.0656L7.14247 12.5468C7.35467 12.759 7.5433 12.9241 7.77908 13.1127L7.30752 13.6314C7.1648 13.5315 7.03072 13.4143 6.89482 13.2956ZM6.7787 13.7459C6.85999 13.8163 6.94228 13.8875 7.02458 13.9615L6.43513 14.5981C6.19935 14.4095 5.93999 14.1973 5.70421 13.9851L6.34082 13.3485C6.47895 13.4866 6.62708 13.6148 6.7787 13.7459ZM5.46843 14.2445C5.70421 14.4567 5.93999 14.6689 6.19935 14.9046L5.70421 15.4234C5.59518 15.3252 5.48111 15.2271 5.36432 15.1266C5.22856 15.0099 5.08914 14.8899 4.94971 14.7632L5.46843 14.2445ZM4.05375 15.6591L4.69035 15.0225C4.92609 15.2583 5.18539 15.494 5.44469 15.7297L5.44485 15.7299L4.8554 16.3901C4.6687 16.2345 4.49227 16.0686 4.31933 15.9061C4.23019 15.8223 4.14197 15.7393 4.05375 15.6591ZM5.70421 12.1932L6.31724 11.698C6.45871 11.8631 6.60017 12.0281 6.7888 12.1932L6.93027 12.3346L6.41156 12.8534C6.17578 12.6412 5.93999 12.4289 5.70421 12.1932ZM5.49201 13.7493C5.23265 13.5135 4.97329 13.2778 4.71393 13.0184L5.42128 12.4525C5.63348 12.6647 5.86926 12.9005 6.12862 13.1363L5.49201 13.7493ZM3.86512 13.7257L4.43099 13.2542C4.58587 13.3936 4.75092 13.5635 4.92615 13.7439C5.01768 13.8381 5.11199 13.9352 5.20907 14.0323L4.69035 14.551C4.40742 14.2916 4.12448 14.0087 3.86512 13.7257ZM2.89842 14.4567L3.58219 13.9144C3.81797 14.1737 4.10091 14.4802 4.40742 14.7632L3.77081 15.3762C3.4643 15.0697 3.18136 14.7632 2.89842 14.4567ZM5.22085 11.698C5.10886 11.5801 4.99687 11.4622 4.87898 11.3444L5.63348 10.8492C5.79852 11.085 5.98715 11.3208 6.19935 11.5566L5.56275 12.0517C5.44485 11.9338 5.33285 11.8159 5.22085 11.698ZM4.57245 12.8533C4.3131 12.594 4.07732 12.3582 3.84154 12.0753L4.61962 11.5566C4.79835 11.7353 4.97707 11.9307 5.18396 12.157C5.22272 12.1994 5.26247 12.2428 5.30339 12.2875L4.57246 12.8534L4.57245 12.8533ZM41.5428 1.15865L41.6136 1.9603C41.441 1.99481 41.1927 2.04195 40.8778 2.10172C40.7625 2.12362 40.6382 2.14721 40.5054 2.1725L40.3875 1.32369C40.7883 1.25297 41.1655 1.20581 41.5427 1.15866L41.5428 1.15865ZM40.9685 3.17975C40.8652 3.20486 40.7579 3.23098 40.6469 3.25709L40.529 2.52617C40.7058 2.49081 40.8885 2.45544 41.0712 2.42008C41.254 2.38471 41.4367 2.34934 41.6136 2.31397L41.6843 3.02131C41.4797 3.05541 41.2381 3.11417 40.9685 3.17975ZM29.966 31.4093C33.6206 30.2539 37.6525 27.8726 41.2835 24.4302C49.1585 16.9795 52.2944 7.45398 48.239 3.06847C46.73 1.44158 44.3958 0.804978 41.6843 1.04076L41.755 1.81883L41.7786 2.1725L41.8493 2.87984L41.8729 3.23351L41.9437 4.15306L41.9672 4.50673L42.038 5.42627C43.4291 5.30838 44.5137 5.52059 45.0324 6.08646C46.0227 7.17105 45.7869 10.5663 43.3583 14.7396C42.1323 16.8616 40.4347 18.9601 38.4777 20.8699C38.9728 18.0641 38.5484 15.0461 37.1337 12.3346C35.0117 8.06701 29.3294 3.8937 21.9966 1.72452C11.6459 -1.34062 1.88457 0.734243 0.234108 6.36939C-0.378921 8.515 0.234111 10.8492 1.81384 13.0891L2.45044 12.6412L2.73338 12.4525L3.32283 12.0517L3.60576 11.8631L4.36026 11.3444L4.6432 11.1557L5.3977 10.637C4.59604 9.4817 4.24237 8.42068 4.45457 7.68977C4.87898 6.27508 7.92055 4.76609 12.7305 4.76609C15.2062 4.76609 17.8941 5.16692 20.5584 5.92141C17.729 6.95885 15.2297 8.96298 13.6029 11.7688C12.754 13.1834 12.2118 14.716 11.9524 16.2722C11.1036 20.0682 11.1743 24.8546 12.3532 29.8295C14.8996 40.4161 21.5487 47.8667 27.231 46.4992C29.3766 45.9805 31.0742 44.2829 32.2295 41.7836L31.5222 41.4535L31.2156 41.312L30.579 41.0055L30.2725 40.8641L29.4237 40.4632L29.1172 40.3218L28.292 39.9445C27.7025 41.1942 26.9716 42.043 26.2407 42.2316C24.8024 42.5853 21.9966 40.699 19.5917 36.5021C18.342 34.3565 17.3518 31.7865 16.668 29.0986C20.2047 32.0695 25.0854 33.0362 29.5416 31.5507C29.6516 31.5193 29.7407 31.4879 29.8298 31.4564C29.8743 31.4407 29.9189 31.425 29.966 31.4093ZM16.5734 29.0159C16.5543 28.9971 16.534 28.9783 16.5064 28.9595C16.5303 28.9814 16.5519 28.9986 16.5734 29.0159ZM23.3406 27.4717C22.4446 27.2831 21.5722 26.9294 20.7234 26.4343C20.0632 26.0335 19.4738 25.5855 18.9786 25.0432L18.9079 24.9725L18.79 24.8546C18.3185 24.3594 17.9176 23.7936 17.564 23.1805C15.5598 19.7146 16.1257 15.4705 18.6486 12.6412C19.2616 11.9574 19.9925 11.3208 20.8413 10.8492C21.8787 10.2362 23.0341 9.85894 24.1658 9.71747C26.4529 9.43454 28.7871 10.024 30.6262 11.3915C32.088 12.4997 33.1962 14.0323 33.7856 15.8242C33.8265 15.9468 33.8595 16.0694 33.8937 16.1966C33.9188 16.2895 33.9444 16.3848 33.9743 16.4844V16.5079C34.1393 17.1917 34.2336 17.8755 34.2336 18.6064V18.6536C34.2336 18.7098 34.2283 18.7714 34.2227 18.8359C34.2165 18.9065 34.2101 18.9804 34.2101 19.0544V19.1251C34.2101 19.243 34.2101 19.3609 34.1865 19.4788C34.1629 19.5259 34.1629 19.5495 34.1629 19.5967C34.1629 19.6674 34.1629 19.7381 34.1393 19.8089C33.9979 20.9642 33.6206 22.1431 32.984 23.2041C30.9799 26.6701 27.0423 28.297 23.3406 27.4717ZM16.2436 28.7332C16.2672 28.7508 16.2908 28.7685 16.3143 28.7921C16.3379 28.7921 16.3379 28.8157 16.3379 28.8392V28.8393C16.3071 28.7931 16.2662 28.7569 16.2219 28.7177C16.2186 28.7148 16.2154 28.7119 16.2121 28.709C16.2226 28.7174 16.2331 28.7253 16.2436 28.7332ZM35.0117 7.28894L35.3654 7.90197C35.2003 7.99628 35.0353 8.09059 34.8938 8.16133L34.5401 7.57188C34.5839 7.54272 34.6636 7.49555 34.7739 7.43035C34.842 7.39009 34.9217 7.34295 35.0117 7.28894ZM34.3987 6.22792L34.7288 6.81738C34.5637 6.91169 34.3751 7.006 34.2101 7.07674L33.88 6.53444C33.9011 6.53444 34.0546 6.43989 34.3065 6.28467C34.3359 6.26656 34.3667 6.24763 34.3987 6.22792ZM33.5734 6.01572L33.2905 5.56774C33.3141 5.56774 33.5027 5.44985 33.8328 5.21407L34.1157 5.70921C33.9271 5.8271 33.7621 5.92141 33.5734 6.01572ZM33.1962 4.1059L33.5499 4.74251C33.4817 4.78511 33.4135 4.82155 33.3465 4.8574C33.228 4.92076 33.113 4.98225 33.0076 5.0726L32.6303 4.45957C32.7954 4.34168 33.0076 4.20021 33.1962 4.1059ZM34.3987 3.46929L34.7523 4.15306C34.5401 4.24737 34.3515 4.34168 34.1393 4.48315L33.7856 3.79939C33.9743 3.6815 34.1865 3.56361 34.3987 3.46929ZM35.0117 4.60104L35.2711 5.14334C35.165 5.19049 35.0648 5.24354 34.9646 5.29659C34.8644 5.34964 34.7641 5.40269 34.658 5.44985L34.3987 4.93113C34.4877 4.88661 34.5768 4.83683 34.6708 4.78427C34.7759 4.72551 34.8872 4.66327 35.0117 4.60104ZM35.1659 5.79813C35.2711 5.73936 35.3824 5.67713 35.5069 5.6149L35.8369 6.27508C35.6248 6.39294 35.4126 6.48723 35.2005 6.58152L35.2003 6.58159L34.8938 5.94499C34.9829 5.90046 35.0719 5.85068 35.1659 5.79813ZM36.3792 7.35967L36.4971 7.28894C36.4548 7.30817 36.4138 7.32803 36.3736 7.34831L36.0727 6.74664C35.9903 6.78786 35.9136 6.82908 35.8407 6.86828C35.705 6.9412 35.5824 7.00715 35.4597 7.05316L35.7662 7.66619C35.8959 7.60724 36.0138 7.5424 36.1317 7.47756C36.2111 7.43387 36.2905 7.39019 36.3736 7.34831L36.3792 7.35967ZM37.4402 6.81738L37.511 6.7938C37.2752 6.91169 37.0158 7.02958 36.7565 7.12389L36.4736 6.51086C36.5475 6.478 36.6243 6.44227 36.703 6.40568C36.8501 6.33726 37.0037 6.2658 37.1573 6.20435L37.4402 6.81738ZM36.6386 5.04902L36.9687 5.77994C36.881 5.81503 36.7965 5.85339 36.7129 5.89137C36.5717 5.95545 36.433 6.01846 36.2849 6.06288L35.9548 5.37912C36.0453 5.33892 36.14 5.29017 36.2372 5.24015C36.368 5.17279 36.5033 5.10314 36.6386 5.04902ZM35.7426 4.93113L35.4833 4.36526C35.6203 4.30436 35.7573 4.23362 35.9134 4.15306C35.999 4.10886 36.0904 4.06171 36.1906 4.01159L36.45 4.62462C36.3321 4.67177 36.2142 4.72482 36.0963 4.77787C35.9784 4.83092 35.8605 4.88397 35.7426 4.93113ZM35.6247 2.85627L35.9784 3.61076C35.8605 3.66971 35.7426 3.71687 35.6247 3.76402C35.5069 3.81118 35.389 3.85833 35.2711 3.91728L34.9174 3.18636C35.1532 3.06847 35.389 2.95058 35.6247 2.85627ZM38.2419 5.75636L38.4777 6.41655C38.2655 6.48728 38.0061 6.58159 37.7703 6.69948L37.511 6.06288C37.7468 5.94499 37.9825 5.85068 38.2419 5.75636ZM37.063 4.88398C37.3224 4.76609 37.5817 4.6482 37.8411 4.55389L38.124 5.35554C37.8883 5.44983 37.629 5.54412 37.3697 5.63841L37.3695 5.63847L37.063 4.88398ZM37.2988 4.30632C37.1632 4.35937 37.0276 4.41242 36.898 4.45957L36.6386 3.84654C36.6933 3.82166 36.7492 3.79571 36.8058 3.76939C37.0174 3.67102 37.2406 3.56727 37.4638 3.49287L37.6996 4.15306C37.5699 4.20022 37.4343 4.25327 37.2988 4.30632ZM37.0394 2.26682L37.3224 3.09205C37.2546 3.1167 37.1852 3.14296 37.1137 3.16998C36.9119 3.24637 36.6938 3.3289 36.45 3.39856L36.1435 2.62049C36.2569 2.57685 36.3671 2.52998 36.4765 2.48347C36.6627 2.40433 36.8464 2.32622 37.0394 2.26682ZM39.468 5.33196L39.6566 6.01572C39.3736 6.08646 39.1143 6.18077 38.8549 6.29866L38.6427 5.63847C38.9021 5.52059 39.185 5.42629 39.4679 5.33199L39.468 5.33196ZM39.1379 4.08232L39.3736 4.93113L39.3735 4.93119C39.0906 5.02548 38.8077 5.11978 38.5013 5.21407L38.2419 4.38884C38.3529 4.35184 38.4675 4.31121 38.5844 4.2698C38.7653 4.20566 38.9516 4.13964 39.1379 4.08232ZM38.737 3.80274C38.5356 3.87343 38.3234 3.94789 38.1004 4.01159L37.8647 3.32783C37.934 3.30305 38.0024 3.27827 38.0701 3.25371C38.3246 3.16142 38.5706 3.07222 38.8314 2.99773L39.02 3.70508C38.9282 3.73568 38.8338 3.76878 38.737 3.80274ZM38.5248 1.79525L38.7606 2.64406C38.4541 2.7148 38.1004 2.83269 37.7468 2.95058L37.4874 2.12535C37.5587 2.10157 37.6291 2.0778 37.6989 2.05422C37.9752 1.96087 38.2425 1.87055 38.5248 1.79525ZM40.8119 5.70921C40.5761 5.75636 40.3639 5.80352 40.1281 5.87425C40.107 5.88129 40.088 5.88623 40.0699 5.89094C40.0272 5.90203 39.9891 5.91191 39.9395 5.94499L39.7745 5.21407L40.694 4.93113L40.8119 5.70921ZM40.4818 3.65792L40.6233 4.57746C40.3857 4.63228 40.1482 4.70125 39.8997 4.77341C39.8275 4.79437 39.7544 4.8156 39.6802 4.83682L39.468 3.96444C39.798 3.84654 40.1281 3.75223 40.4818 3.65792ZM40.4347 3.32783C40.1046 3.39856 39.7509 3.49287 39.3736 3.61076L39.2322 2.90342C39.5858 2.78554 39.9631 2.69123 40.3403 2.59692L40.3403 2.59691L40.4347 3.32783ZM40.1517 1.39443L40.2696 2.24324C39.9395 2.31397 39.5387 2.40828 39.1379 2.52617L38.9257 1.67736C39.0888 1.64111 39.2485 1.60137 39.406 1.56217C39.6582 1.49939 39.905 1.43797 40.1517 1.39443ZM41.6802 4.65794C41.7292 4.64677 41.7778 4.6357 41.8258 4.62462L41.8965 5.52058C41.6136 5.56774 41.307 5.6149 41.0005 5.66205L40.8826 4.8604C41.1412 4.78086 41.4165 4.71808 41.6802 4.65794ZM40.8355 4.53031L40.694 3.61076C41.0241 3.51645 41.3778 3.42214 41.7314 3.37498L41.8022 4.29453C41.6945 4.32145 41.5799 4.34838 41.4599 4.37661C41.2645 4.42253 41.0545 4.4719 40.8355 4.53031ZM32.3474 41.5714L31.6165 41.2413C31.7108 41.0291 31.8287 40.6754 31.9701 40.1567L32.7718 40.4632C32.6846 40.7595 32.5717 41.0301 32.4616 41.2939C32.4228 41.387 32.3843 41.4792 32.3474 41.5714ZM30.9799 39.7795L31.6636 40.0624C31.6243 40.1803 31.5877 40.2982 31.551 40.4161C31.4776 40.6519 31.4043 40.8876 31.31 41.1234L30.6734 40.8169C30.7184 40.6367 30.7826 40.4277 30.8537 40.1962C30.8943 40.0643 30.9371 39.925 30.9799 39.7795ZM29.5888 32.8475V32.3052L30.2725 32.2817V32.8475H29.5888ZM30.862 32.2581L31.4986 32.2345C31.4986 32.2581 31.4986 32.4703 31.5222 32.8475H30.8384C30.8384 32.7532 30.8443 32.653 30.8502 32.5528C30.8561 32.4526 30.862 32.3524 30.862 32.2581ZM32.1116 32.2345L32.6303 32.2109C32.6303 32.2155 32.6312 32.2273 32.6327 32.2463C32.6386 32.3245 32.6539 32.5249 32.6539 32.8475H32.088C32.088 32.7414 32.0939 32.6412 32.0998 32.541C32.1057 32.4408 32.1116 32.3406 32.1116 32.2345ZM33.2075 32.5349C33.2136 32.4231 33.2198 32.3083 33.2198 32.1873L33.9271 32.1638V32.8475H33.1962C33.1962 32.7442 33.2018 32.6409 33.2075 32.5349ZM33.9035 34.2386L33.1255 34.1915C33.149 33.9793 33.1726 33.7435 33.1726 33.5077L33.9271 33.5313C33.9271 33.7671 33.9271 34.0029 33.9035 34.2386ZM32.6067 34.1679L31.9937 34.1443C32.0409 33.9086 32.0409 33.6964 32.0409 33.4607V33.4606L32.6303 33.4841C32.6303 33.6963 32.6303 33.9085 32.6067 34.1679ZM31.475 34.1207L30.7441 34.0736C30.7677 33.8614 30.7912 33.6256 30.7912 33.4134L31.4986 33.437C31.4986 33.6492 31.4986 33.8614 31.475 34.1207ZM29.567 34.0265L29.5652 34.0264V34.1679C29.5652 34.1202 29.5659 34.0731 29.567 34.0265ZM29.567 34.0265L30.2489 34.05C30.2725 33.7906 30.2725 33.5784 30.2725 33.3662L29.5888 33.3427C29.5888 33.4841 29.5829 33.6197 29.577 33.7553C29.5731 33.8451 29.5692 33.9349 29.567 34.0265ZM29.4945 35.2289L29.4709 35.2996C29.4945 35.0167 29.518 34.7338 29.5652 34.4744L30.2489 34.5451C30.2254 34.7805 30.2019 35.0393 30.1784 35.2981L30.1782 35.2996L29.4945 35.2289ZM31.4278 35.394L30.6262 35.3232C30.6498 35.0639 30.6733 34.8281 30.7441 34.5687L31.4986 34.6395L31.4985 34.64C31.475 34.8756 31.4514 35.1113 31.4278 35.394ZM32.5124 35.4883L31.8758 35.4175C31.8876 35.2879 31.8994 35.1641 31.9112 35.0403C31.923 34.9165 31.9348 34.7927 31.9466 34.663L32.5832 34.7102C32.5753 34.7967 32.5674 34.8806 32.5596 34.9645C32.5439 35.1321 32.5281 35.2997 32.5124 35.4883ZM33.8092 35.5826L32.984 35.5118C33.0311 35.2525 33.0547 34.9932 33.0783 34.7339L33.0783 34.7338L33.88 34.8045L33.8092 35.5826ZM30.0132 36.455L29.3294 36.3371C29.3766 36.0777 29.4001 35.8419 29.4237 35.5826L30.1075 35.6769C30.0839 35.9362 30.0603 36.172 30.0132 36.455ZM31.2392 36.6672L30.414 36.5257C30.4611 36.2663 30.5083 36.007 30.5319 35.724L31.3335 35.8184L31.3335 35.8184C31.31 36.1013 31.2864 36.3843 31.2392 36.6672ZM32.3474 36.8794L31.6636 36.7615L31.6636 36.7613C31.7108 36.4785 31.7579 36.1956 31.8051 35.8891L32.4653 35.9834C32.4417 36.2663 32.3946 36.5727 32.3474 36.8792L32.3474 36.8794ZM33.6206 37.1152L32.7718 36.9737C32.7875 36.8715 32.8032 36.772 32.8189 36.6725C32.8504 36.4734 32.8818 36.2742 32.9133 36.0541L33.7621 36.172C33.715 36.5018 33.6679 36.808 33.6208 37.1142L33.6206 37.1152ZM29.7774 37.7282L29.0936 37.5396C29.0987 37.5192 29.1038 37.499 29.1088 37.4789C29.1742 37.2192 29.2351 36.9769 29.2351 36.7143L29.9189 36.8558C29.9024 36.9546 29.8888 37.0535 29.875 37.1533C29.8495 37.3393 29.8234 37.5288 29.7774 37.7282ZM31.027 38.0583L30.1782 37.8225C30.1996 37.6941 30.2258 37.5658 30.2525 37.4352C30.2847 37.278 30.3175 37.1176 30.3433 36.9501L31.1921 37.1152C31.1866 37.151 31.181 37.1872 31.1755 37.2236C31.1336 37.4986 31.0895 37.7876 31.027 38.0583ZM32.1116 38.3412L31.4043 38.1526C31.4343 37.9571 31.4836 37.7521 31.5337 37.5436C31.5621 37.4251 31.5908 37.3055 31.6165 37.1859L32.3002 37.3274C32.261 37.602 32.2055 37.8766 32.1472 38.1648C32.1354 38.223 32.1235 38.2818 32.1116 38.3412ZM33.2905 38.6713L32.4417 38.4355C32.536 38.1054 32.6068 37.7753 32.6775 37.4217L33.5263 37.6103C33.432 37.9639 33.3613 38.3175 33.2906 38.6711L33.2905 38.6713ZM29.0229 37.8225L29.7302 38.0347C29.6988 38.239 29.6464 38.4434 29.594 38.6477C29.5678 38.7499 29.5416 38.8521 29.518 38.9542L28.7871 38.6713C28.828 38.5487 28.861 38.4261 28.8952 38.299C28.9202 38.206 28.9459 38.1107 28.9757 38.0111C28.9885 37.9856 28.9944 37.9531 29.0008 37.9175C29.0062 37.8874 29.0121 37.8549 29.0229 37.8225ZM29.964 38.7282C30.0135 38.5388 30.0648 38.3425 30.1075 38.129L30.9563 38.3884C30.9161 38.5891 30.8684 38.7898 30.8217 38.9862C30.7861 39.1358 30.7511 39.283 30.7205 39.4258L29.8717 39.0957C29.8997 38.9742 29.9315 38.8527 29.964 38.7282ZM31.7344 39.8502L31.0506 39.5673C31.1034 39.321 31.1693 39.0615 31.2385 38.789C31.2621 38.6963 31.286 38.602 31.31 38.5063L32.0173 38.7185C31.9701 38.97 31.902 39.2215 31.8339 39.473C31.7999 39.5987 31.7658 39.7245 31.7344 39.8502ZM32.8425 40.251L32.0409 39.9445C32.1588 39.6144 32.2531 39.2372 32.3474 38.8128L33.1962 39.0486C33.1019 39.4494 32.984 39.8502 32.8425 40.251ZM29.2115 40.1331L28.4099 39.7559C28.4295 39.7019 28.4501 39.6459 28.4714 39.5883C28.5522 39.369 28.6417 39.1263 28.7164 38.8835L29.4709 39.19C29.4001 39.5201 29.3058 39.8266 29.2115 40.1331ZM29.801 39.3315L30.6498 39.6616L30.6497 39.6619C30.5554 39.9919 30.4611 40.3219 30.3668 40.6754L29.518 40.2746C29.6123 40.0153 29.7067 39.6852 29.801 39.3315ZM104.026 20.3029H111.595V23.4624H104.026H100.89V20.3029V8.82042H104.026V20.3029ZM69.2958 13.5596C69.2958 14.88 68.777 16.0589 67.9047 16.9077C67.0558 17.7565 65.8769 18.2988 64.5801 18.2988H59.9589V23.4624H56.823V18.2988V8.844H59.9589H64.5801C67.1737 8.82042 69.2958 10.9424 69.2958 13.5596ZM66.207 13.5596C66.207 12.5222 65.3818 11.6969 64.3444 11.6969H59.9589V15.4223H64.3444C65.3582 15.4458 66.207 14.597 66.207 13.5596ZM87.9224 17.7093C87.9224 19.3362 86.602 20.6566 84.9752 20.6566H83.9141C82.2873 20.6566 80.9669 19.3362 80.9669 17.7093V8.82042H77.831V17.7093C77.831 20.8688 80.401 23.4624 83.5369 23.4624H85.3288C88.4883 23.4624 91.0347 20.8924 91.0347 17.7093V8.82042H87.946L87.9224 17.7093ZM154.082 20.1379L155.591 23.4388H152.455L150.947 20.1379H143.732L142.223 23.4388H139.063L140.572 20.1379L141.94 17.1435L145.736 8.82042H148.895L152.691 17.1435L154.082 20.1379ZM177 23.4624H173.464C173.464 23.4624 172.355 21.1989 171.672 19.737C170.988 18.2988 170.21 18.2988 170.21 18.2988H166.343V23.4624H163.207V18.2988V8.844H166.343H170.705C173.298 8.844 175.421 10.966 175.421 13.5832C175.421 14.9035 174.902 16.0825 174.029 16.9313C173.971 16.9901 173.906 17.0489 173.841 17.1076L173.841 17.1081C173.776 17.167 173.711 17.226 173.652 17.2849C175.255 19.0533 177 23.4624 177 23.4624ZM166.343 15.4458H170.446C171.459 15.4458 172.308 14.6206 172.308 13.5832C172.308 12.5457 171.483 11.7205 170.446 11.7205H166.343V15.4458ZM149.579 17.167L147.339 12.2628L145.099 17.167H149.579ZM126.732 14.7149C126.732 14.7149 122.04 14.1019 122.488 12.6636C122.936 11.2254 127.038 10.7067 129.42 13.371L131.542 11.3668C131.542 11.3668 129.773 8.74968 125.081 8.74968C120.389 8.74968 119.493 11.5083 119.493 11.5083C119.493 11.5083 117.749 15.7052 123.973 16.9548C123.973 16.9548 129.16 17.7329 128.665 19.2891C128.194 20.8216 124.091 21.7412 121.026 18.6053L118.739 20.7509C118.739 20.7509 120.649 23.5567 125.671 23.5567C130.693 23.5567 131.683 20.5859 131.683 20.5859C131.683 20.5859 133.452 16.0589 126.732 14.7149ZM86.4842 34.6858H91.2469V35.8883H89.6201V40.0144H88.1111V35.8883H86.4842V34.6858ZM99.5464 38.3404L100.678 40.0144H99.0749L98.1082 38.5997H97.3065V40.0144H95.7975V34.6858H98.2025C98.674 34.6858 99.0984 34.7565 99.4521 34.9216C99.8058 35.0866 100.089 35.3224 100.254 35.6053C100.442 35.9119 100.537 36.2655 100.537 36.6428C100.537 37.0436 100.442 37.3737 100.277 37.6566C100.136 37.9396 99.8765 38.1753 99.5464 38.3404ZM99.0749 36.6664C99.0749 36.4306 99.0041 36.2184 98.8391 36.1005C98.674 35.959 98.4382 35.8883 98.1553 35.8883H97.3301V37.4444H98.1553C98.4618 37.4444 98.6976 37.3737 98.8391 37.2558C98.9805 37.0908 99.0749 36.9021 99.0749 36.6664ZM108.6 34.6858L110.935 40.0144H109.378L108.954 38.977H106.714L106.29 40.0144H104.757L107.091 34.6858H108.6ZM108.53 37.8688L107.846 36.1712L107.162 37.8688H108.53ZM120.46 35.9354C120.696 36.3363 120.837 36.8078 120.837 37.3501C120.837 37.8924 120.719 38.364 120.46 38.7648C120.224 39.1656 119.871 39.4721 119.399 39.7079C118.951 39.9437 118.432 40.038 117.843 40.038H115.344V34.7094H117.843C118.432 34.7094 118.928 34.8037 119.399 35.0395C119.871 35.2281 120.224 35.5582 120.46 35.9354ZM119.328 37.3501C119.328 36.9021 119.187 36.5249 118.928 36.2891C118.668 36.0297 118.291 35.8883 117.843 35.8883H116.9V38.812H117.843C118.291 38.812 118.668 38.6705 118.928 38.4111C119.187 38.1518 119.328 37.8217 119.328 37.3501ZM125.647 40.0144H127.156V34.6858H125.647V40.0144ZM133.452 34.6858H132.226V40.0144H133.687V37.1851L136.022 40.0144H137.248V34.6858H135.786V37.5152L133.452 34.6858ZM144.793 38.1046H144.863V38.1989H144.793V38.1046ZM144.863 38.1046H145.854V38.7176C145.594 38.8355 145.335 38.9063 145.052 38.9063C144.746 38.9063 144.486 38.8355 144.274 38.7176C144.038 38.5762 143.873 38.4111 143.755 38.1753C143.637 37.9396 143.567 37.6802 143.567 37.3973C143.567 36.9257 143.708 36.572 143.991 36.2891C144.25 36.0062 144.628 35.8883 145.076 35.8883C145.571 35.8883 145.995 36.0769 146.372 36.4777L147.339 35.6289C147.08 35.3224 146.75 35.063 146.349 34.898C145.948 34.733 145.5 34.6386 145.005 34.6386C144.439 34.6386 143.944 34.7565 143.496 34.9923C143.048 35.2281 142.694 35.5582 142.435 35.9826C142.176 36.407 142.058 36.8786 142.058 37.4208C142.058 37.9396 142.176 38.4347 142.435 38.8591C142.694 39.2835 143.024 39.6136 143.496 39.8494C143.944 40.0852 144.439 40.2031 145.005 40.2031C145.406 40.2031 145.783 40.1323 146.184 40.0144C146.585 39.8965 146.915 39.7315 147.245 39.5193V38.1753V37.3265V37.2322H144.863V38.1046Z" fill="#C4C4C4"/>
</svg>
