<svg width="155" height="35" viewBox="0 0 155 35" fill="none" xmlns="http://www.w3.org/2000/svg">
<path fill-rule="evenodd" clip-rule="evenodd" d="M88.3097 2.88391C87.8635 1.73329 86.7599 0.934901 85.4918 0.911419V0.887939H84.4586H84.2473C83.0027 1.00535 81.9226 1.8507 81.5469 3.04828L76.4982 15.3293H72.6237H72.4594C71.4027 15.4468 70.5573 16.3391 70.5573 17.4192V17.6071C70.6512 18.6873 71.5436 19.5326 72.6237 19.5326H74.6901L69.8763 31.2501L69.8059 31.438C69.7354 31.6493 69.712 31.8372 69.712 32.0485C69.6885 32.6355 69.8998 33.1991 70.2755 33.6218C70.6747 34.0445 71.2383 34.2558 71.8253 34.2323C72.248 34.2323 72.6707 34.0914 73.0229 33.8331C73.3752 33.5513 73.6804 33.1991 73.8448 32.7764L79.1752 19.5561H82.8384H83.0028C84.0594 19.4387 84.9048 18.5464 84.9048 17.4662V17.4192V17.2549C84.8109 16.1747 83.9185 15.3293 82.8384 15.3293H80.8659L84.9518 5.20862L96.0118 32.7764L96.1057 32.9878C96.2935 33.3165 96.5284 33.5983 96.8336 33.8331C97.1859 34.0914 97.6085 34.2323 98.0312 34.2323C98.6183 34.2558 99.1818 34.0445 99.581 33.6218C99.9802 33.1756 100.168 32.6121 100.145 32.0485V31.8841C100.145 31.6728 100.098 31.4615 100.004 31.2501L88.3801 3.07176L88.3097 2.88391ZM53.6033 2.88391C53.1572 1.70981 52.03 0.934901 50.762 0.911419V0.887939H49.7288H49.5175C48.2729 1.00535 47.1928 1.8507 46.8171 3.04828L41.7684 15.3293H37.9409H37.7765C36.7198 15.4468 35.8745 16.3391 35.8745 17.4192V17.6071C35.9684 18.6873 36.8607 19.5326 37.9409 19.5326H40.0073L35.1935 31.2501L35.123 31.438C35.0526 31.6493 35.0291 31.8372 35.0291 32.0485C35.0056 32.6355 35.217 33.1991 35.5927 33.6218C35.9919 34.0445 36.5554 34.2558 37.1425 34.2323C37.5652 34.2323 37.9878 34.0914 38.3401 33.8331C38.6923 33.5513 38.9976 33.1991 39.1619 32.7764L44.4923 19.5561H48.179H48.3434C49.4235 19.4622 50.2689 18.5699 50.2689 17.4662V17.4192V17.2549C50.175 16.1747 49.2827 15.3293 48.179 15.3293H46.2065L50.2454 5.20862L61.3054 32.7764L61.3993 32.9878C61.5872 33.3165 61.822 33.5983 62.1273 33.8331C62.4795 34.0914 62.9022 34.2323 63.3249 34.2323C63.9119 34.2558 64.4755 34.0445 64.8747 33.6218C65.2269 33.2226 65.4148 32.753 65.4382 32.2364V31.8372C65.4148 31.6493 65.3678 31.438 65.2973 31.2501L53.6738 3.07176L53.6033 2.88391ZM100.544 1.31061C100.192 1.05231 99.7689 0.911419 99.3462 0.911419C98.7826 0.864455 98.2191 1.09928 97.7964 1.52195C97.4207 1.96811 97.2093 2.50819 97.2328 3.09524C97.2328 3.37703 97.2798 3.63533 97.3737 3.89363L108.997 32.072C109.396 33.34 110.571 34.2088 111.909 34.2323H112.942C114.281 34.2088 115.455 33.34 115.854 32.072L127.478 3.89363C127.572 3.63533 127.618 3.37703 127.618 3.09524C127.618 2.50819 127.431 1.94463 127.031 1.52195C126.632 1.09928 126.069 0.887937 125.505 0.911419C125.082 0.911419 124.66 1.05231 124.308 1.31061C123.955 1.5924 123.674 1.94463 123.486 2.3673L112.426 29.9351L101.366 2.3673C101.201 1.94463 100.896 1.5924 100.544 1.31061ZM154.388 1.73329C154.012 1.33409 153.496 1.09928 152.956 1.12276V1.14624H134.076C133.512 1.12276 132.972 1.3341 132.573 1.75677C132.174 2.17945 131.939 2.71953 131.963 3.30658V31.9546C131.963 32.5181 132.174 33.0582 132.573 33.4574C132.949 33.8801 133.512 34.1149 134.076 34.0679H152.956C153.496 34.0914 154.012 33.8801 154.388 33.5044C154.787 33.1287 155.022 32.6356 154.998 32.0955C154.998 31.5554 154.787 31.0388 154.388 30.6631C154.012 30.2639 153.496 30.0291 152.956 30.0525H136.26V19.6031H151.265C151.805 19.6031 152.322 19.3917 152.697 19.016C153.096 18.6403 153.331 18.1472 153.308 17.6071C153.308 17.067 153.073 16.5504 152.697 16.1747C152.322 15.7755 151.805 15.5407 151.265 15.5642H136.26V5.16166H152.956C153.496 5.16166 154.012 4.95032 154.388 4.57461C154.787 4.1989 155.022 3.70577 154.998 3.16569C154.998 2.6256 154.787 2.109 154.388 1.73329ZM11.9932 0.911969C18.2864 0.911969 23.382 6.00756 23.382 12.3007V16.2456V16.8L23.3821 16.8562V32.9413C23.3821 33.6693 22.795 34.2328 22.0905 34.2328C21.3626 34.2328 20.799 33.6458 20.799 32.9413V29.3251C20.799 28.6676 20.2355 28.151 19.531 28.1275H19.5075C18.8031 28.1275 18.216 28.6441 18.216 29.3016V30.9219C18.216 31.6029 17.6759 32.143 16.995 32.143C16.314 32.143 15.7739 31.6029 15.7739 30.9219V29.3251C15.7739 28.6676 15.2103 28.151 14.5059 28.1275H14.4824C13.7779 28.1275 13.1909 28.6441 13.1909 29.3016V29.6304C13.1909 30.3114 12.6508 30.8514 11.9698 30.8514C11.2888 30.8514 10.7488 30.3114 10.7488 29.6304V29.3251C10.7488 28.6676 10.1852 28.151 9.48073 28.1275H9.45725C8.75279 28.1275 8.16574 28.6441 8.16574 29.3016V30.9219C8.16574 31.6029 7.62566 32.143 6.94468 32.143C6.2637 32.143 5.72362 31.6029 5.72362 30.9219V29.3251C5.72362 28.6676 5.16005 28.151 4.45559 28.1275H4.43211C3.72765 28.1275 3.1406 28.6441 3.1406 29.3016V29.3251V33.0118C3.1406 33.6928 2.60052 34.2328 1.91954 34.2328C1.23856 34.2328 0.698479 33.6928 0.698479 33.0118V27.8456H0.604492V27.0004V12.3007V12.0892C0.604492 11.1383 0.732018 10.2466 0.971638 9.41936C2.24669 4.52285 6.69565 0.911969 11.9932 0.911969ZM5.32461 12.7017C5.36541 12.7816 5.41061 12.8589 5.45989 12.9332C5.76793 13.3975 6.23548 13.7458 6.78595 13.9015C6.08761 13.4553 5.60638 12.5594 5.60638 11.526C5.60638 10.7227 5.89023 10.0025 6.34516 9.51202C6.26101 9.55551 6.17983 9.60389 6.10201 9.65679C5.47562 10.0826 5.06612 10.8011 5.06612 11.6197C5.06612 12.0101 5.15925 12.3777 5.32461 12.7017ZM5.84155 11.4799C5.86338 10.5106 6.34111 9.68629 7.01982 9.32549C6.33609 9.68809 5.85643 10.518 5.84155 11.4799ZM9.7227 11.2177C9.73331 11.3186 9.73878 11.4215 9.73878 11.5258V11.5763C9.73906 11.5596 9.7392 11.5428 9.7392 11.526C9.7392 11.4216 9.73358 11.3187 9.7227 11.2177ZM9.73575 11.6692C9.67988 10.3939 8.85677 9.36548 7.83674 9.36548C6.78005 9.36548 5.9347 10.4457 5.9347 11.8076C5.9347 12.0528 5.95586 12.298 6.01828 12.5232C6.32579 13.3455 7.00169 13.9211 7.7902 13.9211C7.92732 13.9211 8.06103 13.9037 8.19 13.8707C8.4714 13.7774 8.72901 13.633 8.95198 13.4485C9.40102 13.0374 9.7007 12.3949 9.73575 11.6692ZM13.7312 12.7017C13.7727 12.7831 13.8189 12.8618 13.8692 12.9373C14.1848 13.4109 14.6666 13.7632 15.2329 13.9125C14.5251 13.4701 14.0359 12.568 14.0359 11.526C14.0359 10.7058 14.339 9.97222 14.8133 9.48133C14.7089 9.53147 14.6088 9.58901 14.5137 9.65327C13.8844 10.0786 13.4727 10.7988 13.4727 11.6197C13.4727 12.0101 13.5658 12.3777 13.7312 12.7017ZM16.5369 13.8895C16.9425 13.7669 17.3014 13.5391 17.5821 13.2376C17.9201 12.8308 18.1379 12.2749 18.1657 11.6597C18.1061 10.3888 17.2846 9.36548 16.2671 9.36548C15.2104 9.36548 14.3651 10.4457 14.3651 11.8076C14.3651 12.0561 14.3868 12.3047 14.4512 12.5323C14.7603 13.3498 15.4341 13.9211 16.2197 13.9211C16.3278 13.9211 16.4337 13.9103 16.5369 13.8895ZM14.2711 11.5493C14.2711 11.5668 14.2713 11.5843 14.2716 11.6018C14.271 11.5766 14.2707 11.5513 14.2707 11.526C14.2707 10.4833 14.8169 9.58826 15.5817 9.26228L15.5824 9.26219C14.8175 9.58886 14.2711 10.4879 14.2711 11.5493Z" fill="#C4C4C4"/>
</svg>
